<svg width="228" height="613" viewBox="0 0 228 613" fill="none" xmlns="http://www.w3.org/2000/svg">
<path fill-rule="evenodd" clip-rule="evenodd" d="M75.9526 31.1899L87.7264 32.2946L85.5752 55.8131L73.8013 54.7375C70.6827 54.4425 67.8075 52.9257 65.8031 50.5184C63.7988 48.111 62.8282 45.0085 63.1032 41.8881C63.4055 38.7725 64.9243 35.9018 67.3299 33.899C69.7355 31.8962 72.8338 30.9227 75.9526 31.1899Z" fill="#F1DEBA"/>
<path fill-rule="evenodd" clip-rule="evenodd" d="M73.3948 59.0981L85.1685 60.1738L83.0173 83.7213L71.2435 82.6457C68.1249 82.3507 65.2496 80.8339 63.2453 78.4266C61.241 76.0192 60.2704 72.9167 60.5453 69.7963C60.8477 66.6807 62.3664 63.81 64.772 61.8072C67.1776 59.8044 70.276 58.8309 73.3948 59.0981Z" fill="#F1DEBA"/>
<path fill-rule="evenodd" clip-rule="evenodd" d="M151.305 31.1903L139.677 32.295L141.828 55.8135L153.602 54.7379C156.718 54.443 159.591 52.9253 161.59 50.5169C163.59 48.1086 164.554 45.0059 164.271 41.8885C164.125 40.3334 163.674 38.8225 162.942 37.4423C162.211 36.0622 161.215 34.8401 160.01 33.846C158.805 32.852 157.416 32.1057 155.922 31.65C154.428 31.1942 152.859 31.038 151.305 31.1903Z" fill="#F1DEBA"/>
<path fill-rule="evenodd" clip-rule="evenodd" d="M153.98 59.0981L142.206 60.1737L144.386 83.7213L156.015 82.6456C159.136 82.358 162.016 80.8433 164.022 78.4342C166.028 76.025 166.996 72.9183 166.713 69.7962C166.418 66.6776 164.901 63.8024 162.494 61.798C160.087 59.7937 156.984 58.8231 153.864 59.0981H153.98Z" fill="#F1DEBA"/>
<path fill-rule="evenodd" clip-rule="evenodd" d="M81.8539 313.441C81.9145 317.677 80.9077 321.86 78.9263 325.605C76.9449 329.349 74.0526 332.534 70.5162 334.867C57.2577 341.977 45.917 352.191 37.4624 364.636H37.1135C36.2655 364.414 35.3642 364.537 34.6069 364.979C33.8496 365.42 33.2978 366.143 33.0726 366.99C32.9262 367.562 32.9352 368.163 33.0988 368.73C33.2623 369.298 33.5745 369.811 34.0029 370.217H34.1773C34.4013 370.399 34.6451 370.555 34.9041 370.682C41.8436 375.155 47.552 381.295 51.5079 388.542C55.4638 395.789 57.5413 403.911 57.5505 412.167C57.5311 424.64 52.7956 436.645 44.2941 445.773C39.9169 450.478 34.6762 454.297 28.8574 457.024C26.5362 458.13 24.1241 459.035 21.6477 459.727C21.2288 459.838 20.8362 460.031 20.4922 460.295C20.1483 460.559 19.8599 460.888 19.6437 461.263C19.4276 461.639 19.2878 462.054 19.2326 462.484C19.1774 462.913 19.2078 463.35 19.322 463.768C19.4959 464.413 19.8606 464.991 20.3686 465.425C7.54741 479.179 0.294777 497.207 0.0187988 516.009C0.0187988 565.052 50.8932 604.792 113.629 604.792C176.364 604.792 227.267 565.052 227.267 516.009C226.989 497.208 219.737 479.181 206.918 465.425C207.434 464.992 207.808 464.415 207.993 463.768C208.208 462.924 208.085 462.03 207.651 461.275C207.217 460.521 206.505 459.965 205.668 459.727C203.201 459.035 200.798 458.13 198.487 457.024C192.664 454.305 187.422 450.484 183.05 445.773C174.56 436.641 169.835 424.637 169.823 412.167C169.844 403.8 171.989 395.575 176.056 388.263C180.124 380.952 185.982 374.792 193.08 370.363C193.734 370.004 194.249 369.438 194.544 368.753C194.839 368.068 194.897 367.305 194.708 366.583C194.476 365.742 193.922 365.025 193.166 364.59C192.409 364.154 191.511 364.035 190.667 364.258L189.911 364.461C181.462 352.073 170.155 341.903 156.945 334.809C153.407 332.476 150.512 329.291 148.525 325.547C146.539 321.804 145.526 317.621 145.578 313.383V201.46C145.578 189.831 137.874 181.11 129.647 173.9C120.141 165.499 118.018 149.771 121.972 136.544C133.6 133.026 143.136 122.386 141.944 109.595L133.484 19.8526C133.484 14.602 131.398 9.56642 127.686 5.85369C123.973 2.14096 118.937 0.0551758 113.687 0.0551758C108.436 0.0551758 103.401 2.14096 99.6879 5.85369C95.9751 9.56642 93.8894 14.602 93.8894 19.8526L85.4878 109.682C84.2959 122.328 93.5695 133.172 105.489 136.66C109.326 149.888 107.291 165.731 97.814 173.987C89.5868 181.284 81.8539 189.831 81.8539 201.547V313.471V313.441Z" fill="#DDBE90"/>
<path fill-rule="evenodd" clip-rule="evenodd" d="M132.496 205.473H127.583V519.033H132.496V205.473Z" fill="#F1DEBA"/>
<path fill-rule="evenodd" clip-rule="evenodd" d="M130.054 200.383C129.048 200.383 128.064 200.682 127.227 201.241C126.391 201.8 125.739 202.594 125.354 203.524C124.968 204.453 124.868 205.476 125.064 206.463C125.26 207.45 125.745 208.357 126.456 209.068C127.168 209.78 128.074 210.264 129.061 210.46C130.048 210.657 131.071 210.556 132.001 210.171C132.93 209.786 133.725 209.134 134.284 208.297C134.843 207.461 135.141 206.477 135.141 205.471C135.141 204.121 134.605 202.827 133.651 201.873C132.697 200.919 131.403 200.383 130.054 200.383Z" fill="#F1DEBA"/>
<path fill-rule="evenodd" clip-rule="evenodd" d="M116.129 205.473H111.216V519.033H116.129V205.473Z" fill="#F1DEBA"/>
<path fill-rule="evenodd" clip-rule="evenodd" d="M113.687 200.383C112.681 200.383 111.697 200.682 110.861 201.241C110.024 201.8 109.372 202.594 108.987 203.524C108.602 204.453 108.501 205.476 108.697 206.463C108.894 207.45 109.378 208.357 110.09 209.068C110.801 209.78 111.708 210.264 112.695 210.46C113.681 210.657 114.704 210.556 115.634 210.171C116.564 209.786 117.358 209.134 117.917 208.297C118.476 207.461 118.774 206.477 118.774 205.471C118.774 204.121 118.238 202.827 117.284 201.873C116.33 200.919 115.036 200.383 113.687 200.383Z" fill="#F1DEBA"/>
<path fill-rule="evenodd" clip-rule="evenodd" d="M99.7912 205.473H94.8491V519.033H99.7912V205.473Z" fill="#F1DEBA"/>
<path fill-rule="evenodd" clip-rule="evenodd" d="M97.3484 200.383C96.3422 200.383 95.3586 200.682 94.522 201.241C93.6853 201.8 93.0333 202.594 92.6482 203.524C92.2632 204.453 92.1624 205.476 92.3587 206.463C92.555 207.45 93.0396 208.357 93.7511 209.068C94.4626 209.78 95.3691 210.264 96.3559 210.46C97.3428 210.657 98.3657 210.556 99.2953 210.171C100.225 209.786 101.019 209.134 101.578 208.297C102.138 207.461 102.436 206.477 102.436 205.471C102.436 204.121 101.9 202.827 100.946 201.873C99.9917 200.919 98.6977 200.383 97.3484 200.383Z" fill="#F1DEBA"/>
<path fill-rule="evenodd" clip-rule="evenodd" d="M136.769 519.031H90.2554C97.3159 548.788 100.877 579.267 100.866 609.849L113.396 612.582L126.013 609.849C126.035 579.26 129.645 548.779 136.769 519.031Z" fill="#F1DEBA"/>
<path fill-rule="evenodd" clip-rule="evenodd" d="M154.212 442.197C151.251 442.204 148.413 443.382 146.317 445.473C144.22 447.564 143.035 450.399 143.02 453.36C143.035 456.321 144.22 459.156 146.317 461.247C148.413 463.338 151.251 464.516 154.212 464.523H165.375V453.36C165.368 450.402 164.189 447.567 162.097 445.475C160.005 443.383 157.17 442.204 154.212 442.197Z" fill="#AA8D62"/>
<path fill-rule="evenodd" clip-rule="evenodd" d="M165.201 458.942H159.183V523.247H165.201V458.942Z" fill="#AA8D62"/>
<path fill-rule="evenodd" clip-rule="evenodd" d="M172.585 537.377C176.135 537.361 179.535 535.945 182.045 533.435C184.555 530.925 185.972 527.525 185.987 523.975C185.979 520.423 184.565 517.019 182.053 514.507C179.541 511.995 176.137 510.581 172.585 510.573H159.183V523.975C159.199 527.525 160.616 530.925 163.126 533.435C165.636 535.945 169.036 537.361 172.585 537.377Z" fill="#AA8D62"/>
<path fill-rule="evenodd" clip-rule="evenodd" d="M73.3364 442.197C76.2947 442.204 79.1297 443.383 81.2215 445.475C83.3134 447.567 84.492 450.402 84.4997 453.36C84.492 456.318 83.3134 459.153 81.2215 461.245C79.1297 463.337 76.2947 464.516 73.3364 464.523H62.1731V453.36C62.1808 450.402 63.3594 447.567 65.4512 445.475C67.5431 443.383 70.3781 442.204 73.3364 442.197Z" fill="#AA8D62"/>
<path fill-rule="evenodd" clip-rule="evenodd" d="M62.144 458.942H68.1909V523.247H62.144V458.942Z" fill="#AA8D62"/>
<path fill-rule="evenodd" clip-rule="evenodd" d="M54.8185 537.377C51.2665 537.369 47.8622 535.955 45.3505 533.443C42.8388 530.931 41.4244 527.527 41.4167 523.975C41.4244 520.423 42.8388 517.019 45.3505 514.507C47.8622 511.995 51.2665 510.581 54.8185 510.573H68.1912V523.975C68.1835 527.522 66.7731 530.922 64.2677 533.433C61.7623 535.944 58.3654 537.361 54.8185 537.377Z" fill="#AA8D62"/>
</svg>
