<svg width="228" height="614" viewBox="0 0 228 614" fill="none" xmlns="http://www.w3.org/2000/svg">
<path fill-rule="evenodd" clip-rule="evenodd" d="M76.5663 31.6845L88.3402 32.7892L86.1889 56.3078L74.4151 55.2321C71.2965 54.9371 68.4212 53.4204 66.4169 51.013C64.4126 48.6056 63.442 45.5031 63.717 42.3827C64.0193 39.2671 65.5381 36.3965 67.9437 34.3936C70.3492 32.3908 73.4475 31.4173 76.5663 31.6845Z" fill="#E3D0AA"/>
<path fill-rule="evenodd" clip-rule="evenodd" d="M74.0086 59.5927L85.7823 60.6684L83.6311 84.216L71.8572 83.1403C68.7386 82.8453 65.8634 81.3286 63.859 78.9212C61.8547 76.5138 60.8841 73.4113 61.1591 70.2909C61.4615 67.1753 62.9802 64.3047 65.3858 62.3018C67.7914 60.299 70.8898 59.3255 74.0086 59.5927Z" fill="#E3D0AA"/>
<path fill-rule="evenodd" clip-rule="evenodd" d="M151.919 31.6849L140.29 32.7896L142.442 56.3081L154.215 55.2325C157.332 54.9377 160.204 53.4199 162.204 51.0116C164.204 48.6032 165.168 45.5006 164.884 42.3831C164.739 40.8281 164.287 39.3171 163.556 37.937C162.825 36.5568 161.829 35.3347 160.624 34.3407C159.419 33.3467 158.03 32.6004 156.536 32.1446C155.042 31.6889 153.473 31.5327 151.919 31.6849Z" fill="#E3D0AA"/>
<path fill-rule="evenodd" clip-rule="evenodd" d="M154.594 59.5927L142.82 60.6683L145 84.2159L156.629 83.1403C159.75 82.8527 162.63 81.338 164.636 78.9288C166.642 76.5196 167.61 73.4129 167.327 70.2908C167.032 67.1722 165.515 64.297 163.108 62.2927C160.7 60.2883 157.598 59.3177 154.477 59.5927H154.594Z" fill="#E3D0AA"/>
<path fill-rule="evenodd" clip-rule="evenodd" d="M82.4676 313.936C82.5282 318.172 81.5215 322.355 79.54 326.099C77.5586 329.844 74.6663 333.029 71.1299 335.361C57.8715 342.472 46.5308 352.686 38.0761 365.13H37.7273C36.8793 364.909 35.978 365.032 35.2207 365.473C34.4633 365.915 33.9116 366.638 33.6864 367.485C33.5399 368.057 33.549 368.658 33.7125 369.225C33.8761 369.792 34.1882 370.306 34.6167 370.712H34.7911C35.0151 370.894 35.2589 371.05 35.5179 371.177C42.4574 375.65 48.1658 381.79 52.1217 389.037C56.0776 396.283 58.155 404.405 58.1643 412.662C58.1448 425.135 53.4093 437.14 44.9079 446.268C40.5306 450.972 35.29 454.792 29.4711 457.518C27.15 458.625 24.7379 459.529 22.2615 460.222C21.8426 460.333 21.4499 460.526 21.106 460.79C20.7621 461.053 20.4737 461.382 20.2575 461.758C20.0413 462.134 19.9016 462.548 19.8464 462.978C19.7912 463.408 19.8216 463.845 19.9358 464.263C20.1096 464.908 20.4744 465.485 20.9823 465.92C8.16118 479.674 0.908546 497.702 0.632568 516.503C0.632568 565.546 51.507 605.286 114.242 605.286C176.978 605.286 227.881 565.546 227.881 516.503C227.603 497.703 220.35 479.676 207.532 465.92C208.047 465.487 208.422 464.91 208.607 464.263C208.822 463.419 208.699 462.525 208.265 461.77C207.831 461.015 207.119 460.46 206.281 460.222C203.814 459.529 201.412 458.625 199.101 457.518C193.278 454.799 188.036 450.979 183.664 446.268C175.173 437.135 170.448 425.131 170.437 412.662C170.458 404.294 172.602 396.07 176.67 388.758C180.738 381.446 186.595 375.287 193.694 370.857C194.348 370.499 194.863 369.933 195.158 369.248C195.453 368.563 195.511 367.799 195.322 367.078C195.09 366.236 194.536 365.52 193.779 365.084C193.023 364.649 192.125 364.53 191.281 364.752L190.525 364.956C182.076 352.568 170.769 342.397 157.558 335.303C154.02 332.97 151.125 329.786 149.139 326.042C147.153 322.298 146.139 318.116 146.192 313.878V201.954C146.192 190.326 138.488 181.604 130.261 174.395C120.754 165.993 118.632 150.266 122.586 137.039C134.214 133.521 143.75 122.881 142.558 110.09L134.098 20.3472C134.098 15.0966 132.012 10.0611 128.299 6.34832C124.587 2.63558 119.551 0.549805 114.301 0.549805C109.05 0.549805 104.014 2.63558 100.302 6.34832C96.5889 10.0611 94.5031 15.0966 94.5031 20.3472L86.1015 110.177C84.9096 122.823 94.1833 133.666 106.102 137.155C109.94 150.382 107.905 166.226 98.4277 174.482C90.2006 181.779 82.4676 190.326 82.4676 202.041V313.965V313.936Z" fill="#845B44"/>
<path fill-rule="evenodd" clip-rule="evenodd" d="M133.11 205.967H128.197V519.528H133.11V205.967Z" fill="#E3D0AA"/>
<path fill-rule="evenodd" clip-rule="evenodd" d="M130.668 200.878C129.661 200.878 128.678 201.176 127.841 201.735C127.004 202.294 126.352 203.089 125.967 204.018C125.582 204.948 125.482 205.971 125.678 206.958C125.874 207.945 126.359 208.851 127.07 209.563C127.782 210.274 128.688 210.759 129.675 210.955C130.662 211.151 131.685 211.051 132.614 210.666C133.544 210.28 134.339 209.628 134.898 208.792C135.457 207.955 135.755 206.972 135.755 205.965C135.755 204.616 135.219 203.322 134.265 202.368C133.311 201.414 132.017 200.878 130.668 200.878Z" fill="#E3D0AA"/>
<path fill-rule="evenodd" clip-rule="evenodd" d="M116.742 205.967H111.829V519.528H116.742V205.967Z" fill="#E3D0AA"/>
<path fill-rule="evenodd" clip-rule="evenodd" d="M114.301 200.878C113.295 200.878 112.311 201.176 111.474 201.735C110.638 202.294 109.986 203.089 109.601 204.018C109.216 204.948 109.115 205.971 109.311 206.958C109.507 207.945 109.992 208.851 110.703 209.563C111.415 210.274 112.321 210.759 113.308 210.955C114.295 211.151 115.318 211.051 116.248 210.666C117.177 210.28 117.972 209.628 118.531 208.792C119.09 207.955 119.388 206.972 119.388 205.965C119.388 204.616 118.852 203.322 117.898 202.368C116.944 201.414 115.65 200.878 114.301 200.878Z" fill="#E3D0AA"/>
<path fill-rule="evenodd" clip-rule="evenodd" d="M100.405 205.967H95.4626V519.528H100.405V205.967Z" fill="#E3D0AA"/>
<path fill-rule="evenodd" clip-rule="evenodd" d="M97.9622 200.878C96.956 200.878 95.9724 201.176 95.1357 201.735C94.2991 202.294 93.6471 203.089 93.262 204.018C92.8769 204.948 92.7762 205.971 92.9725 206.958C93.1688 207.945 93.6534 208.851 94.3649 209.563C95.0763 210.274 95.9828 210.759 96.9697 210.955C97.9566 211.151 98.9795 211.051 99.9091 210.666C100.839 210.28 101.633 209.628 102.192 208.792C102.751 207.955 103.05 206.972 103.05 205.965C103.05 204.616 102.514 203.322 101.56 202.368C100.605 201.414 99.3115 200.878 97.9622 200.878Z" fill="#E3D0AA"/>
<path fill-rule="evenodd" clip-rule="evenodd" d="M137.383 519.525H90.8691C97.9297 549.282 101.491 579.761 101.48 610.343L114.01 613.076L126.627 610.343C126.649 579.754 130.259 549.273 137.383 519.525Z" fill="#E3D0AA"/>
<path fill-rule="evenodd" clip-rule="evenodd" d="M154.826 442.691C151.865 442.699 149.027 443.877 146.931 445.968C144.834 448.059 143.649 450.894 143.634 453.855C143.649 456.816 144.834 459.651 146.931 461.742C149.027 463.833 151.865 465.01 154.826 465.018H165.989V453.855C165.982 450.896 164.803 448.061 162.711 445.97C160.619 443.878 157.785 442.699 154.826 442.691Z" fill="#35332E"/>
<path fill-rule="evenodd" clip-rule="evenodd" d="M165.815 459.437H159.797V523.742H165.815V459.437Z" fill="#35332E"/>
<path fill-rule="evenodd" clip-rule="evenodd" d="M173.199 537.871C176.749 537.856 180.148 536.439 182.658 533.929C185.168 531.419 186.585 528.019 186.601 524.47C186.593 520.918 185.179 517.513 182.667 515.002C180.155 512.49 176.751 511.076 173.199 511.068H159.797V524.47C159.812 528.019 161.229 531.419 163.739 533.929C166.249 536.439 169.649 537.856 173.199 537.871Z" fill="#35332E"/>
<path fill-rule="evenodd" clip-rule="evenodd" d="M73.9502 442.691C76.9085 442.699 79.7434 443.878 81.8353 445.97C83.9272 448.061 85.1058 450.896 85.1134 453.855C85.1058 456.813 83.9272 459.648 81.8353 461.74C79.7434 463.832 76.9085 465.01 73.9502 465.018H62.7869V453.855C62.7945 450.896 63.9731 448.061 66.065 445.97C68.1569 443.878 70.9918 442.699 73.9502 442.691Z" fill="#35332E"/>
<path fill-rule="evenodd" clip-rule="evenodd" d="M62.7578 459.437H68.8046V523.742H62.7578V459.437Z" fill="#35332E"/>
<path fill-rule="evenodd" clip-rule="evenodd" d="M55.4322 537.871C51.8802 537.864 48.4759 536.449 45.9643 533.938C43.4526 531.426 42.0382 528.022 42.0305 524.47C42.0382 520.918 43.4526 517.513 45.9643 515.002C48.4759 512.49 51.8802 511.076 55.4322 511.068H68.805V524.47C68.7973 528.017 67.3869 531.417 64.8815 533.927C62.3761 536.438 58.9792 537.856 55.4322 537.871Z" fill="#35332E"/>
</svg>
