<svg width="321" height="346" viewBox="0 0 321 346" fill="none" xmlns="http://www.w3.org/2000/svg">
<path fill-rule="evenodd" clip-rule="evenodd" d="M162.193 173.991V80.9368C162.137 59.5192 153.606 38.9944 138.464 23.8469C123.322 8.69946 102.801 0.160677 81.3831 0.0961914C59.9627 0.160638 39.4379 8.69846 24.2913 23.8451C9.14473 38.9917 0.606928 59.5164 0.54248 80.9368V223.986V264.424V264.516V296C0.582796 309.253 5.86721 321.95 15.2409 331.318C24.6146 340.686 37.3154 345.963 50.5678 345.995H270.459C283.706 345.955 296.399 340.675 305.766 331.308C315.133 321.94 320.414 309.247 320.454 296V223.986C320.414 210.739 315.133 198.046 305.766 188.679C296.399 179.312 283.706 174.031 270.459 173.991H250.524C239.016 173.933 227.627 171.637 216.993 167.231C206.219 162.768 196.431 156.225 188.186 147.978C179.942 139.731 173.403 129.94 168.943 119.165C164.491 108.409 162.198 96.8825 162.194 85.2418V173.991H162.193Z" fill="#DDBE90"/>
<path fill-rule="evenodd" clip-rule="evenodd" d="M27.8154 301.958V224.63C27.8396 218.387 30.3324 212.407 34.7496 207.996C39.1668 203.584 45.1498 201.099 51.3926 201.083C57.6327 201.099 63.6125 203.585 68.0249 207.997C72.4373 212.41 74.9232 218.39 74.9394 224.63V301.958C74.9232 308.198 72.4373 314.178 68.0249 318.59C63.6125 323.003 57.6327 325.489 51.3926 325.505C45.1498 325.489 39.1668 323.004 34.7496 318.592C30.3324 314.181 27.8396 308.201 27.8154 301.958Z" fill="#F1DEBA"/>
<path fill-rule="evenodd" clip-rule="evenodd" d="M82.4216 301.958V224.63C82.4378 218.39 84.9237 212.41 89.3361 207.997C93.7485 203.585 99.7283 201.099 105.968 201.083C112.208 201.099 118.188 203.585 122.601 207.997C127.013 212.41 129.499 218.39 129.515 224.63V301.958C129.499 308.198 127.013 314.178 122.601 318.59C118.188 323.003 112.208 325.489 105.968 325.505C99.7283 325.489 93.7485 323.003 89.3361 318.59C84.9237 314.178 82.4378 308.198 82.4216 301.958Z" fill="#F1DEBA"/>
<path fill-rule="evenodd" clip-rule="evenodd" d="M136.998 301.958V224.63C137.022 218.387 139.515 212.407 143.932 207.996C148.349 203.584 154.332 201.099 160.575 201.083C166.815 201.099 172.795 203.585 177.207 207.997C181.62 212.41 184.106 218.39 184.122 224.63V301.958C184.106 308.198 181.62 314.178 177.207 318.59C172.795 323.003 166.815 325.489 160.575 325.505C154.332 325.489 148.349 323.004 143.932 318.592C139.515 314.181 137.022 308.201 136.998 301.958Z" fill="#F1DEBA"/>
<path fill-rule="evenodd" clip-rule="evenodd" d="M191.604 301.958V224.63C191.62 218.39 194.106 212.41 198.518 207.997C202.931 203.585 208.91 201.099 215.15 201.083C221.39 201.099 227.37 203.585 231.783 207.997C236.195 212.41 238.681 218.39 238.697 224.63V301.958C238.681 308.198 236.195 314.178 231.783 318.59C227.37 323.003 221.39 325.489 215.15 325.505C208.91 325.489 202.931 323.003 198.518 318.59C194.106 314.178 191.62 308.198 191.604 301.958Z" fill="#F1DEBA"/>
<path fill-rule="evenodd" clip-rule="evenodd" d="M246.18 301.958V224.63C246.196 218.39 248.682 212.41 253.094 207.997C257.507 203.585 263.487 201.099 269.727 201.083C275.969 201.099 281.952 203.584 286.37 207.996C290.787 212.407 293.28 218.387 293.304 224.63V301.958C293.28 308.201 290.787 314.181 286.37 318.592C281.952 323.004 275.969 325.489 269.727 325.505C263.487 325.489 257.507 323.003 253.094 318.59C248.682 314.178 246.196 308.198 246.18 301.958Z" fill="#F1DEBA"/>
<path fill-rule="evenodd" clip-rule="evenodd" d="M61.8069 265.095V220.506C61.823 216.034 63.6085 211.751 66.7732 208.592C69.9379 205.433 74.2243 203.656 78.6958 203.647C83.1619 203.664 87.4406 205.445 90.5987 208.603C93.7567 211.761 95.538 216.04 95.5541 220.506V265.095C95.538 269.561 93.7567 273.84 90.5987 276.998C87.4406 280.156 83.1619 281.937 78.6958 281.953C74.2243 281.945 69.9379 280.167 66.7732 277.009C63.6085 273.85 61.823 269.566 61.8069 265.095Z" fill="#AA8D62"/>
<path fill-rule="evenodd" clip-rule="evenodd" d="M116.414 265.095V220.506C116.422 216.037 118.2 211.754 121.36 208.594C124.52 205.434 128.803 203.656 133.272 203.647C137.741 203.656 142.024 205.434 145.184 208.594C148.343 211.754 150.122 216.037 150.13 220.506V265.095C150.122 269.564 148.343 273.847 145.184 277.007C142.024 280.166 137.741 281.945 133.272 281.953C128.803 281.945 124.52 280.166 121.36 277.007C118.2 273.847 116.422 269.564 116.414 265.095Z" fill="#AA8D62"/>
<path fill-rule="evenodd" clip-rule="evenodd" d="M225.596 265.095V220.506C225.604 216.037 227.383 211.754 230.542 208.594C233.702 205.434 237.985 203.656 242.454 203.647C246.92 203.664 251.199 205.445 254.357 208.603C257.515 211.761 259.296 216.04 259.312 220.506V265.095C259.296 269.561 257.515 273.84 254.357 276.998C251.199 280.156 246.92 281.937 242.454 281.953C237.985 281.945 233.702 280.166 230.542 277.007C227.383 273.847 225.604 269.564 225.596 265.095Z" fill="#AA8D62"/>
<path fill-rule="evenodd" clip-rule="evenodd" d="M170.989 265.095V220.506C171.005 216.04 172.787 211.761 175.945 208.603C179.103 205.445 183.381 203.664 187.848 203.647C192.316 203.656 196.6 205.434 199.759 208.594C202.919 211.754 204.698 216.037 204.706 220.506V265.095C204.698 269.564 202.919 273.847 199.759 277.007C196.6 280.166 192.316 281.945 187.848 281.953C183.381 281.937 179.103 280.156 175.945 276.998C172.787 273.84 171.005 269.561 170.989 265.095Z" fill="#AA8D62"/>
</svg>
