<svg width="321" height="347" viewBox="0 0 321 347" fill="none" xmlns="http://www.w3.org/2000/svg">
<path fill-rule="evenodd" clip-rule="evenodd" d="M161.807 174.486V81.4314C161.75 60.0138 153.219 39.489 138.078 24.3416C122.936 9.19409 102.414 0.655306 80.9966 0.59082C59.5762 0.655267 39.0515 9.19309 23.9049 24.3397C8.75825 39.4863 0.220453 60.011 0.156006 81.4314V224.481V264.919V265.01V296.495C0.196321 309.747 5.48074 322.445 14.8544 331.813C24.2282 341.181 36.929 346.458 50.1813 346.49H270.073C283.32 346.449 296.013 341.169 305.38 331.802C314.747 322.435 320.027 309.742 320.067 296.495V224.481C320.027 211.234 314.747 198.541 305.38 189.173C296.013 179.806 283.32 174.526 270.073 174.486H250.137C238.629 174.427 227.24 172.132 216.606 167.726C205.833 163.262 196.044 156.72 187.8 148.473C179.555 140.225 173.016 130.435 168.556 119.66C164.104 108.904 161.811 97.3771 161.807 85.7364V174.486H161.807Z" fill="#585043"/>
<path fill-rule="evenodd" clip-rule="evenodd" d="M27.429 302.453V225.124C27.4531 218.882 29.9459 212.902 34.3631 208.49C38.7804 204.079 44.7633 201.594 51.0062 201.578C57.2462 201.594 63.226 204.08 67.6384 208.492C72.0508 212.904 74.5368 218.884 74.5529 225.124V302.453C74.5368 308.693 72.0508 314.673 67.6384 319.085C63.226 323.497 57.2462 325.983 51.0062 326C44.7633 325.983 38.7804 323.498 34.3631 319.087C29.9459 314.675 27.4531 308.696 27.429 302.453Z" fill="#E3D0AA"/>
<path fill-rule="evenodd" clip-rule="evenodd" d="M82.0352 302.453V225.124C82.0513 218.884 84.5373 212.904 88.9496 208.492C93.362 204.08 99.3419 201.594 105.582 201.578C111.822 201.594 117.802 204.08 122.214 208.492C126.626 212.904 129.112 218.884 129.129 225.124V302.453C129.112 308.693 126.626 314.673 122.214 319.085C117.802 323.497 111.822 325.983 105.582 326C99.3419 325.983 93.362 323.497 88.9496 319.085C84.5373 314.673 82.0513 308.693 82.0352 302.453Z" fill="#E3D0AA"/>
<path fill-rule="evenodd" clip-rule="evenodd" d="M136.611 302.453V225.124C136.636 218.882 139.128 212.902 143.546 208.49C147.963 204.079 153.946 201.594 160.189 201.578C166.429 201.594 172.408 204.08 176.821 208.492C181.233 212.904 183.719 218.884 183.735 225.124V302.453C183.719 308.693 181.233 314.673 176.821 319.085C172.408 323.497 166.429 325.983 160.189 326C153.946 325.983 147.963 323.498 143.546 319.087C139.128 314.675 136.636 308.696 136.611 302.453Z" fill="#E3D0AA"/>
<path fill-rule="evenodd" clip-rule="evenodd" d="M191.217 302.453V225.124C191.233 218.884 193.719 212.904 198.132 208.492C202.544 204.08 208.524 201.594 214.764 201.578C221.004 201.594 226.984 204.08 231.396 208.492C235.809 212.904 238.295 218.884 238.311 225.124V302.453C238.295 308.693 235.809 314.673 231.396 319.085C226.984 323.497 221.004 325.983 214.764 326C208.524 325.983 202.544 323.497 198.132 319.085C193.719 314.673 191.233 308.693 191.217 302.453Z" fill="#E3D0AA"/>
<path fill-rule="evenodd" clip-rule="evenodd" d="M245.793 302.453V225.124C245.81 218.884 248.296 212.904 252.708 208.492C257.12 204.08 263.1 201.594 269.34 201.578C275.583 201.594 281.566 204.079 285.983 208.49C290.4 212.902 292.893 218.882 292.917 225.124V302.453C292.893 308.696 290.4 314.675 285.983 319.087C281.566 323.498 275.583 325.983 269.34 326C263.1 325.983 257.12 323.497 252.708 319.085C248.296 314.673 245.81 308.693 245.793 302.453Z" fill="#E3D0AA"/>
<path fill-rule="evenodd" clip-rule="evenodd" d="M61.4202 265.59V221.001C61.4363 216.529 63.2218 212.246 66.3865 209.087C69.5511 205.928 73.8376 204.151 78.309 204.143C82.7752 204.159 87.0539 205.94 90.2119 209.098C93.37 212.256 95.1513 216.535 95.1674 221.001V265.59C95.1513 270.056 93.37 274.335 90.2119 277.493C87.0539 280.651 82.7752 282.432 78.309 282.448C73.8376 282.44 69.5511 280.663 66.3865 277.504C63.2218 274.345 61.4363 270.061 61.4202 265.59Z" fill="#35332E"/>
<path fill-rule="evenodd" clip-rule="evenodd" d="M116.027 265.59V221.001C116.035 216.532 117.814 212.249 120.974 209.089C124.134 205.929 128.417 204.151 132.885 204.143C137.354 204.151 141.637 205.929 144.797 209.089C147.957 212.249 149.736 216.532 149.744 221.001V265.59C149.736 270.059 147.957 274.342 144.797 277.502C141.637 280.662 137.354 282.44 132.885 282.448C128.417 282.44 124.134 280.662 120.974 277.502C117.814 274.342 116.035 270.059 116.027 265.59Z" fill="#35332E"/>
<path fill-rule="evenodd" clip-rule="evenodd" d="M225.209 265.59V221.001C225.217 216.532 226.996 212.249 230.156 209.089C233.316 205.929 237.599 204.151 242.068 204.143C246.534 204.159 250.812 205.94 253.97 209.098C257.128 212.256 258.91 216.535 258.926 221.001V265.59C258.91 270.056 257.128 274.335 253.97 277.493C250.812 280.651 246.534 282.432 242.068 282.448C237.599 282.44 233.316 280.662 230.156 277.502C226.996 274.342 225.217 270.059 225.209 265.59Z" fill="#35332E"/>
<path fill-rule="evenodd" clip-rule="evenodd" d="M170.603 265.59V221.001C170.619 216.535 172.4 212.256 175.558 209.098C178.716 205.94 182.995 204.159 187.461 204.143C191.93 204.151 196.213 205.929 199.373 209.089C202.532 212.249 204.311 216.532 204.319 221.001V265.59C204.311 270.059 202.532 274.342 199.373 277.502C196.213 280.662 191.93 282.44 187.461 282.448C182.995 282.432 178.716 280.651 175.558 277.493C172.4 274.335 170.619 270.056 170.603 265.59Z" fill="#35332E"/>
</svg>
