<svg width="223" height="33" viewBox="0 0 223 33" fill="none" xmlns="http://www.w3.org/2000/svg">
<path d="M48.286 17.1867L48.786 15.2117C49.9193 15.2117 51.0027 15.1867 52.036 15.1367C53.086 15.0867 54.036 14.9784 54.886 14.8117C55.736 14.6284 56.436 14.3617 56.986 14.0117C57.5527 13.6617 57.911 13.1784 58.061 12.5617C58.1943 12.0451 58.0943 11.5951 57.761 11.2117C57.4443 10.8117 56.9277 10.4867 56.211 10.2367C55.4943 9.97005 54.611 9.77005 53.561 9.63672C52.511 9.50338 51.336 9.43672 50.036 9.43672L50.486 7.46172C52.736 7.46172 54.6193 7.67838 56.136 8.11172C57.6527 8.52838 58.7527 9.14505 59.436 9.96172C60.1193 10.7617 60.311 11.7617 60.011 12.9617C59.7777 13.8951 59.3277 14.6451 58.661 15.2117C57.9943 15.7617 57.1443 16.1867 56.111 16.4867C55.0943 16.7701 53.9277 16.9617 52.611 17.0617C51.2943 17.1451 49.8527 17.1867 48.286 17.1867ZM45.936 26.7617C45.586 26.7617 45.336 26.6284 45.186 26.3617C45.036 26.0951 44.9943 25.8117 45.061 25.5117L49.336 8.38672C49.4193 8.08672 49.5277 7.86172 49.661 7.71172C49.811 7.54505 50.086 7.46172 50.486 7.46172C50.9027 7.46172 51.161 7.57005 51.261 7.78672C51.361 8.00338 51.361 8.31172 51.261 8.71172L47.061 25.8117C47.0443 25.9784 46.9443 26.1784 46.761 26.4117C46.5943 26.6451 46.3193 26.7617 45.936 26.7617ZM61.3323 26.7617C60.5823 26.7617 59.9906 26.5451 59.5573 26.1117C59.1406 25.6617 58.8906 25.0701 58.8073 24.3367C58.7239 23.5867 58.7906 22.7617 59.0073 21.8617C59.2739 20.6951 59.6656 19.6951 60.1823 18.8617C60.6989 18.0117 61.2989 17.3534 61.9823 16.8867C62.6823 16.4201 63.4239 16.1867 64.2073 16.1867C64.8406 16.1867 65.3073 16.3784 65.6073 16.7617C65.9239 17.1284 66.0989 17.6367 66.1323 18.2867C66.1656 18.9201 66.0656 19.6451 65.8323 20.4617C65.4656 21.7451 65.0656 22.8617 64.6323 23.8117C64.1989 24.7451 63.7156 25.4701 63.1823 25.9867C62.6489 26.5034 62.0323 26.7617 61.3323 26.7617ZM61.7573 24.9867C62.1906 24.9867 62.6239 24.7784 63.0573 24.3617C63.5073 23.9451 63.9156 23.3701 64.2823 22.6367C64.6656 21.9034 64.9656 21.0701 65.1823 20.1367C65.3656 19.4701 65.3573 18.9451 65.1573 18.5617C64.9573 18.1784 64.5739 17.9867 64.0073 17.9867C63.6073 17.9867 63.1989 18.1534 62.7823 18.4867C62.3823 18.8201 62.0239 19.2701 61.7073 19.8367C61.4073 20.4034 61.1656 21.0534 60.9823 21.7867C60.7323 22.8201 60.6656 23.6117 60.7823 24.1617C60.9156 24.7117 61.2406 24.9867 61.7573 24.9867ZM64.6073 26.7617C64.2073 26.7617 63.9573 26.6367 63.8573 26.3867C63.7739 26.1367 63.7739 25.8201 63.8573 25.4367L65.9323 17.1617C66.0989 16.5784 66.4989 16.2867 67.1323 16.2867C67.4656 16.2867 67.6906 16.3867 67.8073 16.5867C67.9239 16.7701 67.9406 17.0367 67.8573 17.3867L65.7823 25.6617C65.6989 25.9951 65.5906 26.2617 65.4573 26.4617C65.3239 26.6617 65.0406 26.7617 64.6073 26.7617ZM72.0909 26.7617C71.3742 26.7617 70.7825 26.5534 70.3159 26.1367C69.8492 25.7034 69.5409 25.1201 69.3909 24.3867C69.2575 23.6534 69.3075 22.8284 69.5409 21.9117C69.9742 20.1617 70.6409 18.7701 71.5409 17.7367C72.4575 16.7034 73.5492 16.1867 74.8159 16.1867C75.4992 16.1867 76.0159 16.3951 76.3659 16.8117C76.7325 17.2284 76.9742 17.7617 77.0909 18.4117C77.1409 18.6451 77.1075 18.8701 76.9909 19.0867C76.8909 19.2867 76.7325 19.4284 76.5159 19.5117C76.1825 19.6284 75.8909 19.6367 75.6409 19.5367C75.4075 19.4201 75.2909 19.2367 75.2909 18.9867C75.2909 18.7034 75.2242 18.4701 75.0909 18.2867C74.9742 18.0867 74.7742 17.9867 74.4909 17.9867C74.1075 17.9867 73.7159 18.1617 73.3159 18.5117C72.9325 18.8617 72.5909 19.3201 72.2909 19.8867C71.9909 20.4534 71.7575 21.0534 71.5909 21.6867C71.3242 22.7701 71.2575 23.5951 71.3909 24.1617C71.5242 24.7117 71.8492 24.9867 72.3659 24.9867C72.7659 24.9867 73.1909 24.7701 73.6409 24.3367C74.1075 23.8867 74.4825 23.3367 74.7659 22.6867C74.8825 22.4367 75.0659 22.2701 75.3159 22.1867C75.5659 22.0867 75.7992 22.0867 76.0159 22.1867C76.2325 22.2701 76.3992 22.4284 76.5159 22.6617C76.6492 22.8951 76.6575 23.1534 76.5409 23.4367C76.1575 24.4034 75.5659 25.2034 74.7659 25.8367C73.9659 26.4534 73.0742 26.7617 72.0909 26.7617ZM85.6526 26.7867C85.2526 26.7867 85.0026 26.6617 84.9026 26.4117C84.8193 26.1451 84.8193 25.8367 84.9026 25.4867L86.0276 21.0617C86.1776 20.4451 86.2693 19.9117 86.3026 19.4617C86.3526 19.0117 86.3359 18.6617 86.2526 18.4117C86.1693 18.1617 86.0109 18.0367 85.7776 18.0367C85.5443 18.0367 85.2526 18.1701 84.9026 18.4367C84.5526 18.7034 84.1693 19.0617 83.7526 19.5117C83.3526 19.9617 82.9609 20.4617 82.5776 21.0117C82.2109 21.5451 81.8776 22.0951 81.5776 22.6617C81.2776 23.2284 81.0526 23.7534 80.9026 24.2367L81.3776 20.4867C81.8443 19.6701 82.3776 18.9451 82.9776 18.3117C83.5776 17.6617 84.1859 17.1451 84.8026 16.7617C85.4193 16.3784 85.9859 16.1867 86.5026 16.1867C86.9359 16.1867 87.2943 16.2701 87.5776 16.4367C87.8609 16.6034 88.0693 16.8867 88.2026 17.2867C88.3359 17.6701 88.3776 18.1951 88.3276 18.8617C88.2943 19.5117 88.1443 20.3284 87.8776 21.3117L86.8026 25.6867C86.7193 26.0034 86.6109 26.2701 86.4776 26.4867C86.3609 26.6867 86.0859 26.7867 85.6526 26.7867ZM79.3776 26.7617C78.9943 26.7617 78.7526 26.6367 78.6526 26.3867C78.5526 26.1201 78.5526 25.8034 78.6526 25.4367L82.9276 8.36172C83.0276 8.02838 83.1693 7.79505 83.3526 7.66172C83.5359 7.51172 83.8026 7.44505 84.1526 7.46172C84.4859 7.47838 84.7026 7.58672 84.8026 7.78672C84.9193 7.98672 84.9359 8.25338 84.8526 8.58672L80.5526 25.6617C80.4693 25.9784 80.3609 26.2451 80.2276 26.4617C80.0943 26.6617 79.8109 26.7617 79.3776 26.7617ZM92.936 26.7617C92.286 26.7617 91.736 26.5617 91.286 26.1617C90.836 25.7451 90.5443 25.1534 90.411 24.3867C90.2777 23.6034 90.3443 22.6701 90.611 21.5867C90.8943 20.5034 91.286 19.5617 91.786 18.7617C92.3027 17.9617 92.9027 17.3367 93.586 16.8867C94.2693 16.4201 95.0027 16.1867 95.786 16.1867C96.4527 16.1867 97.0027 16.3867 97.436 16.7867C97.8693 17.1867 98.086 17.6617 98.086 18.2117C98.086 18.8117 97.7943 19.4451 97.211 20.1117C96.6277 20.7617 95.8277 21.3784 94.811 21.9617C93.7943 22.5451 92.6277 23.0367 91.311 23.4367L91.611 21.6617C92.4277 21.4451 93.1777 21.1617 93.861 20.8117C94.5443 20.4451 95.0943 20.0617 95.511 19.6617C95.9277 19.2451 96.136 18.8534 96.136 18.4867C96.136 18.3367 96.0693 18.2201 95.936 18.1367C95.8193 18.0367 95.6527 17.9867 95.436 17.9867C95.0193 17.9867 94.6193 18.1617 94.236 18.5117C93.8693 18.8617 93.536 19.3367 93.236 19.9367C92.9527 20.5367 92.7193 21.2117 92.536 21.9617C92.286 22.9284 92.2277 23.6784 92.361 24.2117C92.511 24.7284 92.8277 24.9867 93.311 24.9867C93.8277 24.9867 94.4193 24.7367 95.086 24.2367C95.7693 23.7201 96.5443 22.9701 97.411 21.9867C97.5777 21.7701 97.7943 21.6534 98.061 21.6367C98.3443 21.6201 98.6027 21.6951 98.836 21.8617C99.0193 22.0117 99.1193 22.2117 99.136 22.4617C99.1693 22.7117 99.0943 22.9617 98.911 23.2117C97.8777 24.3951 96.8693 25.2867 95.886 25.8867C94.9193 26.4701 93.936 26.7617 92.936 26.7617ZM103.389 26.7617C102.889 26.7617 102.472 26.6034 102.139 26.2867C101.805 25.9701 101.605 25.4951 101.539 24.8617C101.472 24.2117 101.564 23.3951 101.814 22.4117L105.339 8.33672C105.439 8.02005 105.58 7.79505 105.764 7.66172C105.947 7.52838 106.205 7.46172 106.539 7.46172C106.872 7.46172 107.097 7.56172 107.214 7.76172C107.33 7.94505 107.347 8.20338 107.264 8.53672L103.689 22.8367C103.539 23.4534 103.464 23.9701 103.464 24.3867C103.464 24.8034 103.555 25.0117 103.739 25.0117C103.872 25.0117 104.089 24.8451 104.389 24.5117C104.689 24.1784 105.03 23.7367 105.414 23.1867C105.647 22.8201 105.847 22.5534 106.014 22.3867C106.197 22.2201 106.405 22.1367 106.639 22.1367C106.872 22.1367 107.055 22.2201 107.189 22.3867C107.322 22.5367 107.389 22.7284 107.389 22.9617C107.389 23.1617 107.339 23.3617 107.239 23.5617C107.155 23.7451 106.972 24.0201 106.689 24.3867C106.072 25.1701 105.48 25.7617 104.914 26.1617C104.364 26.5617 103.855 26.7617 103.389 26.7617ZM109.98 26.7617C109.564 26.7617 109.305 26.6367 109.205 26.3867C109.105 26.1201 109.105 25.7951 109.205 25.4117L113.48 8.36172C113.647 7.76172 114.055 7.46172 114.705 7.46172C115.055 7.46172 115.28 7.57005 115.38 7.78672C115.48 7.98672 115.48 8.26172 115.38 8.61172L111.105 25.6117C111.039 25.9451 110.947 26.2201 110.83 26.4367C110.714 26.6534 110.43 26.7617 109.98 26.7617ZM112.78 26.7617C112.13 26.7617 111.647 26.5534 111.33 26.1367C111.014 25.7201 110.847 25.1284 110.83 24.3617C110.83 23.5784 110.972 22.6367 111.255 21.5367C111.522 20.4201 111.855 19.4701 112.255 18.6867C112.672 17.8867 113.155 17.2701 113.705 16.8367C114.272 16.4034 114.922 16.1867 115.655 16.1867C116.655 16.1867 117.364 16.6617 117.78 17.6117C118.214 18.5451 118.239 19.8034 117.855 21.3867C117.589 22.4534 117.197 23.3951 116.68 24.2117C116.164 25.0117 115.572 25.6367 114.905 26.0867C114.239 26.5367 113.53 26.7617 112.78 26.7617ZM112.905 24.9867C113.539 24.9867 114.13 24.6201 114.68 23.8867C115.23 23.1367 115.647 22.1701 115.93 20.9867C116.18 20.0034 116.222 19.2617 116.055 18.7617C115.905 18.2451 115.589 17.9867 115.105 17.9867C114.455 17.9867 113.855 18.3534 113.305 19.0867C112.772 19.8034 112.364 20.7451 112.08 21.9117C111.83 22.9117 111.78 23.6784 111.93 24.2117C112.08 24.7284 112.405 24.9867 112.905 24.9867ZM122.61 26.7617C121.96 26.7617 121.41 26.5617 120.96 26.1617C120.51 25.7451 120.218 25.1534 120.085 24.3867C119.951 23.6034 120.018 22.6701 120.285 21.5867C120.568 20.5034 120.96 19.5617 121.46 18.7617C121.976 17.9617 122.576 17.3367 123.26 16.8867C123.943 16.4201 124.676 16.1867 125.46 16.1867C126.126 16.1867 126.676 16.3867 127.11 16.7867C127.543 17.1867 127.76 17.6617 127.76 18.2117C127.76 18.8117 127.468 19.4451 126.885 20.1117C126.301 20.7617 125.501 21.3784 124.485 21.9617C123.468 22.5451 122.301 23.0367 120.985 23.4367L121.285 21.6617C122.101 21.4451 122.851 21.1617 123.535 20.8117C124.218 20.4451 124.768 20.0617 125.185 19.6617C125.601 19.2451 125.81 18.8534 125.81 18.4867C125.81 18.3367 125.743 18.2201 125.61 18.1367C125.493 18.0367 125.326 17.9867 125.11 17.9867C124.693 17.9867 124.293 18.1617 123.91 18.5117C123.543 18.8617 123.21 19.3367 122.91 19.9367C122.626 20.5367 122.393 21.2117 122.21 21.9617C121.96 22.9284 121.901 23.6784 122.035 24.2117C122.185 24.7284 122.501 24.9867 122.985 24.9867C123.501 24.9867 124.093 24.7367 124.76 24.2367C125.443 23.7201 126.218 22.9701 127.085 21.9867C127.251 21.7701 127.468 21.6534 127.735 21.6367C128.018 21.6201 128.276 21.6951 128.51 21.8617C128.693 22.0117 128.793 22.2117 128.81 22.4617C128.843 22.7117 128.768 22.9617 128.585 23.2117C127.551 24.3951 126.543 25.2867 125.56 25.8867C124.593 26.4701 123.61 26.7617 122.61 26.7617ZM133.063 26.7617C132.563 26.7617 132.146 26.6034 131.813 26.2867C131.479 25.9701 131.279 25.4951 131.213 24.8617C131.146 24.2117 131.238 23.3951 131.488 22.4117L135.013 8.33672C135.113 8.02005 135.254 7.79505 135.438 7.66172C135.621 7.52838 135.879 7.46172 136.213 7.46172C136.546 7.46172 136.771 7.56172 136.888 7.76172C137.004 7.94505 137.021 8.20338 136.938 8.53672L133.363 22.8367C133.213 23.4534 133.138 23.9701 133.138 24.3867C133.138 24.8034 133.229 25.0117 133.413 25.0117C133.546 25.0117 133.763 24.8451 134.063 24.5117C134.363 24.1784 134.704 23.7367 135.088 23.1867C135.321 22.8201 135.521 22.5534 135.688 22.3867C135.871 22.2201 136.079 22.1367 136.313 22.1367C136.546 22.1367 136.729 22.2201 136.863 22.3867C136.996 22.5367 137.063 22.7284 137.063 22.9617C137.063 23.1617 137.013 23.3617 136.913 23.5617C136.829 23.7451 136.646 24.0201 136.363 24.3867C135.746 25.1701 135.154 25.7617 134.588 26.1617C134.038 26.5617 133.529 26.7617 133.063 26.7617ZM143.504 13.8117C143.204 13.8117 142.962 13.7117 142.779 13.5117C142.596 13.2951 142.546 13.0201 142.629 12.6867L143.754 8.28672C143.821 8.02005 143.954 7.82005 144.154 7.68672C144.371 7.53672 144.596 7.46172 144.829 7.46172C145.129 7.46172 145.371 7.57005 145.554 7.78672C145.754 7.98672 145.804 8.26172 145.704 8.61172L144.579 13.0367C144.496 13.2867 144.354 13.4784 144.154 13.6117C143.971 13.7451 143.754 13.8117 143.504 13.8117ZM149.311 26.7617C148.078 26.7617 147.128 26.2117 146.461 25.1117C146.244 24.7951 146.153 24.4867 146.186 24.1867C146.236 23.8867 146.394 23.6617 146.661 23.5117C146.911 23.3617 147.136 23.3451 147.336 23.4617C147.553 23.5784 147.761 23.8034 147.961 24.1367C148.278 24.7034 148.803 24.9867 149.536 24.9867C150.103 24.9867 150.594 24.8284 151.011 24.5117C151.444 24.1784 151.686 23.7701 151.736 23.2867C151.786 22.8867 151.703 22.6117 151.486 22.4617C151.286 22.3117 150.886 22.2367 150.286 22.2367C149.186 22.2367 148.411 21.9784 147.961 21.4617C147.511 20.9451 147.369 20.2201 147.536 19.2867C147.703 18.3867 148.153 17.6451 148.886 17.0617C149.619 16.4784 150.478 16.1867 151.461 16.1867C152.461 16.1867 153.303 16.5867 153.986 17.3867C154.319 17.7534 154.469 18.0701 154.436 18.3367C154.403 18.6034 154.261 18.8451 154.011 19.0617C153.794 19.2284 153.553 19.2617 153.286 19.1617C153.019 19.0617 152.769 18.8951 152.536 18.6617C152.353 18.4284 152.144 18.2617 151.911 18.1617C151.694 18.0451 151.436 17.9867 151.136 17.9867C150.703 17.9867 150.328 18.1117 150.011 18.3617C149.694 18.5951 149.503 18.9284 149.436 19.3617C149.386 19.6951 149.469 19.9451 149.686 20.1117C149.903 20.2784 150.278 20.3617 150.811 20.3617C151.628 20.3617 152.253 20.4784 152.686 20.7117C153.136 20.9284 153.428 21.2367 153.561 21.6367C153.711 22.0367 153.753 22.5117 153.686 23.0617C153.603 23.7617 153.344 24.3951 152.911 24.9617C152.494 25.5117 151.969 25.9534 151.336 26.2867C150.719 26.6034 150.044 26.7617 149.311 26.7617ZM170.463 26.7617C169.43 26.7617 168.563 26.4534 167.863 25.8367C167.18 25.2034 166.696 24.2951 166.413 23.1117C166.13 21.9117 166.08 20.4701 166.263 18.7867C166.563 16.4201 167.096 14.3951 167.863 12.7117C168.63 11.0117 169.58 9.71172 170.713 8.81172C171.863 7.91172 173.138 7.46172 174.538 7.46172C176.555 7.46172 177.821 8.46172 178.338 10.4617C178.471 11.0284 178.263 11.3951 177.713 11.5617C177.43 11.6451 177.163 11.6367 176.913 11.5367C176.68 11.4201 176.505 11.2201 176.388 10.9367C176.205 10.4034 175.938 10.0034 175.588 9.73672C175.255 9.45338 174.846 9.31172 174.363 9.31172C173.313 9.31172 172.371 9.69505 171.538 10.4617C170.721 11.2284 170.038 12.3034 169.488 13.6867C168.955 15.0701 168.58 16.7034 168.363 18.5867C168.263 19.4867 168.221 20.3201 168.238 21.0867C168.255 21.8534 168.355 22.5284 168.538 23.1117C168.721 23.6784 168.971 24.1201 169.288 24.4367C169.605 24.7367 170.005 24.8867 170.488 24.8867C171.088 24.8867 171.755 24.5951 172.488 24.0117C173.221 23.4117 173.963 22.5367 174.713 21.3867C174.996 20.9367 175.238 20.6117 175.438 20.4117C175.638 20.2117 175.871 20.1284 176.138 20.1617C176.388 20.1784 176.588 20.2617 176.738 20.4117C176.888 20.5617 176.963 20.7534 176.963 20.9867C176.963 21.0701 176.921 21.2284 176.838 21.4617C176.755 21.6951 176.538 22.0701 176.188 22.5867C175.271 23.9867 174.305 25.0367 173.288 25.7367C172.288 26.4201 171.346 26.7617 170.463 26.7617ZM182.078 26.7617C181.328 26.7617 180.737 26.5451 180.303 26.1117C179.887 25.6617 179.637 25.0701 179.553 24.3367C179.47 23.5867 179.537 22.7617 179.753 21.8617C180.02 20.6951 180.412 19.6951 180.928 18.8617C181.445 18.0117 182.045 17.3534 182.728 16.8867C183.428 16.4201 184.17 16.1867 184.953 16.1867C185.587 16.1867 186.053 16.3784 186.353 16.7617C186.67 17.1284 186.845 17.6367 186.878 18.2867C186.912 18.9201 186.812 19.6451 186.578 20.4617C186.212 21.7451 185.812 22.8617 185.378 23.8117C184.945 24.7451 184.462 25.4701 183.928 25.9867C183.395 26.5034 182.778 26.7617 182.078 26.7617ZM182.503 24.9867C182.937 24.9867 183.37 24.7784 183.803 24.3617C184.253 23.9451 184.662 23.3701 185.028 22.6367C185.412 21.9034 185.712 21.0701 185.928 20.1367C186.112 19.4701 186.103 18.9451 185.903 18.5617C185.703 18.1784 185.32 17.9867 184.753 17.9867C184.353 17.9867 183.945 18.1534 183.528 18.4867C183.128 18.8201 182.77 19.2701 182.453 19.8367C182.153 20.4034 181.912 21.0534 181.728 21.7867C181.478 22.8201 181.412 23.6117 181.528 24.1617C181.662 24.7117 181.987 24.9867 182.503 24.9867ZM185.353 26.7617C184.953 26.7617 184.703 26.6367 184.603 26.3867C184.52 26.1367 184.52 25.8201 184.603 25.4367L186.678 17.1617C186.845 16.5784 187.245 16.2867 187.878 16.2867C188.212 16.2867 188.437 16.3867 188.553 16.5867C188.67 16.7701 188.687 17.0367 188.603 17.3867L186.528 25.6617C186.445 25.9951 186.337 26.2617 186.203 26.4617C186.07 26.6617 185.787 26.7617 185.353 26.7617ZM196.712 26.7617C196.312 26.7617 196.062 26.6367 195.962 26.3867C195.879 26.1201 195.887 25.8117 195.987 25.4617L197.087 21.0617C197.237 20.4451 197.337 19.9117 197.387 19.4617C197.437 19.0117 197.42 18.6617 197.337 18.4117C197.254 18.1617 197.087 18.0367 196.837 18.0367C196.604 18.0367 196.312 18.1701 195.962 18.4367C195.612 18.7034 195.229 19.0617 194.812 19.5117C194.412 19.9617 194.02 20.4617 193.637 21.0117C193.27 21.5451 192.937 22.0951 192.637 22.6617C192.337 23.2284 192.12 23.7534 191.987 24.2367L192.437 20.4867C192.904 19.6701 193.437 18.9451 194.037 18.3117C194.637 17.6617 195.245 17.1451 195.862 16.7617C196.479 16.3784 197.045 16.1867 197.562 16.1867C197.995 16.1867 198.354 16.2701 198.637 16.4367C198.937 16.6034 199.145 16.8867 199.262 17.2867C199.395 17.6701 199.437 18.1951 199.387 18.8617C199.354 19.5117 199.204 20.3284 198.937 21.3117L197.862 25.6617C197.779 25.9784 197.67 26.2451 197.537 26.4617C197.42 26.6617 197.145 26.7617 196.712 26.7617ZM190.437 26.7617C190.054 26.7617 189.812 26.6367 189.712 26.3867C189.612 26.1201 189.612 25.8034 189.712 25.4367L191.762 17.2117C191.862 16.8784 192.004 16.6451 192.187 16.5117C192.387 16.3617 192.654 16.2867 192.987 16.2867C193.32 16.2867 193.537 16.3951 193.637 16.6117C193.754 16.8117 193.77 17.0784 193.687 17.4117L191.637 25.6617C191.554 25.9784 191.437 26.2451 191.287 26.4617C191.154 26.6617 190.87 26.7617 190.437 26.7617ZM204.053 26.7617C202.97 26.7617 202.203 26.2867 201.753 25.3367C201.303 24.3867 201.27 23.1201 201.653 21.5367C201.936 20.4534 202.336 19.5201 202.853 18.7367C203.37 17.9367 203.978 17.3117 204.678 16.8617C205.395 16.4117 206.161 16.1867 206.978 16.1867C208.061 16.1867 208.828 16.6617 209.278 17.6117C209.728 18.5451 209.761 19.8034 209.378 21.3867C209.111 22.4534 208.711 23.3951 208.178 24.2117C207.661 25.0117 207.045 25.6367 206.328 26.0867C205.628 26.5367 204.87 26.7617 204.053 26.7617ZM204.403 24.9867C205.053 24.9867 205.653 24.6201 206.203 23.8867C206.753 23.1367 207.17 22.1701 207.453 20.9867C207.703 20.0034 207.745 19.2617 207.578 18.7617C207.428 18.2451 207.103 17.9867 206.603 17.9867C205.97 17.9867 205.378 18.3534 204.828 19.0867C204.278 19.8034 203.861 20.7451 203.578 21.9117C203.328 22.9117 203.278 23.6784 203.428 24.2117C203.595 24.7284 203.92 24.9867 204.403 24.9867ZM218.147 26.7617C217.747 26.7617 217.497 26.6367 217.397 26.3867C217.313 26.1201 217.322 25.8117 217.422 25.4617L218.522 21.0617C218.672 20.4451 218.772 19.9117 218.822 19.4617C218.872 19.0117 218.855 18.6617 218.772 18.4117C218.688 18.1617 218.522 18.0367 218.272 18.0367C218.038 18.0367 217.747 18.1701 217.397 18.4367C217.047 18.7034 216.663 19.0617 216.247 19.5117C215.847 19.9617 215.455 20.4617 215.072 21.0117C214.705 21.5451 214.372 22.0951 214.072 22.6617C213.772 23.2284 213.555 23.7534 213.422 24.2367L213.872 20.4867C214.338 19.6701 214.872 18.9451 215.472 18.3117C216.072 17.6617 216.68 17.1451 217.297 16.7617C217.913 16.3784 218.48 16.1867 218.997 16.1867C219.43 16.1867 219.788 16.2701 220.072 16.4367C220.372 16.6034 220.58 16.8867 220.697 17.2867C220.83 17.6701 220.872 18.1951 220.822 18.8617C220.788 19.5117 220.638 20.3284 220.372 21.3117L219.297 25.6617C219.213 25.9784 219.105 26.2451 218.972 26.4617C218.855 26.6617 218.58 26.7617 218.147 26.7617ZM211.872 26.7617C211.488 26.7617 211.247 26.6367 211.147 26.3867C211.047 26.1201 211.047 25.8034 211.147 25.4367L213.197 17.2117C213.297 16.8784 213.438 16.6451 213.622 16.5117C213.822 16.3617 214.088 16.2867 214.422 16.2867C214.755 16.2867 214.972 16.3951 215.072 16.6117C215.188 16.8117 215.205 17.0784 215.122 17.4117L213.072 25.6617C212.988 25.9784 212.872 26.2451 212.722 26.4617C212.588 26.6617 212.305 26.7617 211.872 26.7617Z" fill="#B29160"/>
<g clip-path="url(#clip0_172_6402)">
<path d="M29.0271 2.10627C29.4859 2.4344 29.7578 2.9594 29.7578 3.51174V7.44924V21.8867C29.7578 24.3039 27.3223 26.2617 24.3203 26.2617C21.3184 26.2617 18.8828 24.3039 18.8828 21.8867C18.8828 19.4696 21.3184 17.5117 24.3203 17.5117C24.9547 17.5117 25.5664 17.5992 26.1328 17.7633V9.8008L11.6328 14.0008V25.3867C11.6328 27.8039 9.19727 29.7617 6.19531 29.7617C3.19336 29.7617 0.757812 27.8039 0.757812 25.3867C0.757812 22.9696 3.19336 21.0117 6.19531 21.0117C6.82969 21.0117 7.44141 21.0992 8.00781 21.2633V12.6992V8.76174C8.00781 7.99065 8.53457 7.30705 9.29922 7.08284L27.4242 1.83284C27.9736 1.67424 28.5684 1.77268 29.0271 2.10627Z" fill="#B29160"/>
</g>
<defs>
<clipPath id="clip0_172_6402">
<rect width="29" height="28" fill="white" transform="translate(0.757812 1.76172)"/>
</clipPath>
</defs>
</svg>
