<svg width="256" height="35" viewBox="0 0 256 35" fill="none" xmlns="http://www.w3.org/2000/svg">
<path d="M8.19449 4.48172H6.12949C5.39449 4.48172 5.07949 4.76172 5.07949 5.53172V11.0967C5.07949 11.8667 5.42949 12.1467 6.12949 12.1467H8.08949C10.5745 12.1467 12.1495 10.5367 12.1495 8.33172C12.1495 5.81172 10.6795 4.48172 8.19449 4.48172ZM1.75449 0.491717H8.22949C13.1295 0.491717 16.3845 3.25672 16.3845 8.29672C16.3845 12.9517 13.1645 16.1367 8.05449 16.1367H6.12949C5.39449 16.1367 5.07949 16.4517 5.07949 17.1867V24.8517C5.07949 25.4817 4.76449 25.7617 4.16949 25.7617H1.75449C1.19449 25.7617 0.84449 25.5167 0.84449 24.8517V1.40172C0.84449 0.736718 1.15949 0.491717 1.75449 0.491717ZM27.9033 5.53172V20.7217C27.9033 21.4917 28.2883 21.7717 28.9533 21.7717H30.2833C30.8783 21.7717 31.2283 22.0167 31.2283 22.7167V24.8517C31.2283 25.5167 30.8783 25.7617 30.2833 25.7617H21.2533C20.6933 25.7617 20.3433 25.5167 20.3433 24.8517V22.7167C20.3433 22.0167 20.6933 21.7717 21.2533 21.7717H22.6183C23.2833 21.7717 23.6683 21.4917 23.6683 20.7217V5.53172C23.6683 4.76172 23.2833 4.48172 22.6183 4.48172H21.2533C20.6933 4.48172 20.3433 4.20172 20.3433 3.53672V1.40172C20.3433 0.736718 20.6933 0.491717 21.2533 0.491717H30.2833C30.8783 0.491717 31.2283 0.736718 31.2283 1.40172V3.53672C31.2283 4.20172 30.8783 4.48172 30.2833 4.48172H28.9533C28.2883 4.48172 27.9033 4.76172 27.9033 5.53172ZM42.8645 0.491717H45.4895C46.1545 0.491717 46.3995 0.771717 46.5395 1.22672L53.4345 24.3967C53.6095 24.9917 53.4345 25.4117 52.8045 25.5517L50.5295 26.2517C49.9345 26.4267 49.5145 26.2167 49.3745 25.6567L48.4295 22.0517C48.3245 21.6667 48.0795 21.3517 47.4145 21.3517H41.0445C40.4495 21.3517 40.1345 21.6317 40.0295 22.0517L39.0845 25.6567C38.9445 26.2167 38.5245 26.4267 37.9645 26.2517L35.6545 25.5517C35.0245 25.3767 34.8845 24.9917 35.0245 24.3967L41.9195 1.22672C42.0595 0.736718 42.3745 0.491717 42.8645 0.491717ZM46.9245 16.2067L44.8245 8.29672C44.6845 7.63172 43.8445 7.59672 43.6695 8.29672L41.5695 16.2067C41.3945 16.8367 41.5695 17.3967 42.3045 17.3967H46.2595C47.0645 17.3967 47.0645 16.7317 46.9245 16.2067ZM70.5019 24.8867L63.3969 10.1867C63.1519 9.76672 62.5219 9.76672 62.5219 10.3967V24.8517C62.5219 25.4817 62.2069 25.7617 61.5769 25.7617H59.1969C58.6019 25.7617 58.2869 25.4817 58.2869 24.8517V1.40172C58.2869 0.701718 58.6719 0.491717 59.1969 0.491717H62.0319C62.6969 0.491717 63.1519 0.771717 63.3969 1.36672L70.5369 16.0667C70.7469 16.4517 71.4119 16.4517 71.4119 15.8217V1.40172C71.4119 0.736718 71.7269 0.491717 72.3219 0.491717H74.7019C75.3319 0.491717 75.6469 0.736718 75.6469 1.40172V24.8517C75.6469 25.5517 75.2619 25.7617 74.7019 25.7617H71.9019C71.2369 25.7617 70.8169 25.4817 70.5019 24.8867ZM90.5079 22.1217C93.6579 22.1217 95.6179 19.1467 95.6179 13.1617C95.6179 7.14172 93.6229 4.13172 90.5079 4.13172C87.2879 4.13172 85.3279 7.03672 85.3279 13.1267C85.3279 19.1817 87.2879 22.1217 90.5079 22.1217ZM90.5079 26.1117C84.8029 26.1117 81.0929 21.8067 81.0929 13.1267C81.0929 4.34172 84.8029 0.141717 90.5079 0.141717C96.0729 0.141717 99.8529 4.55172 99.8529 13.1617C99.8529 21.7717 96.1779 26.1117 90.5079 26.1117ZM120.248 25.5517C116.958 24.2567 114.158 20.7917 114.158 13.1267C114.158 4.34172 117.868 0.141717 123.573 0.141717C129.138 0.141717 132.918 4.55172 132.918 13.1617C132.918 20.3017 130.468 24.1167 126.898 25.5167C125.953 25.9017 125.743 26.4967 125.743 27.7567C125.743 29.4017 126.723 30.1717 128.053 30.1717H129.768C130.468 30.1717 130.713 30.5567 130.713 31.1167V33.2517C130.713 33.8467 130.433 34.1617 129.768 34.1617H128.088C123.153 34.1617 121.508 30.9067 121.508 27.7567C121.508 26.4267 121.228 25.9367 120.248 25.5517ZM123.573 22.1217C126.723 22.1217 128.683 19.1467 128.683 13.1617C128.683 7.14172 126.688 4.13172 123.573 4.13172C120.353 4.13172 118.393 7.03672 118.393 13.1267C118.393 19.1817 120.353 22.1217 123.573 22.1217ZM150.199 18.4117V1.40172C150.199 0.736718 150.514 0.491717 151.109 0.491717H153.489C154.084 0.491717 154.434 0.736718 154.434 1.40172V18.3417C154.434 22.9267 151.354 26.1117 146.069 26.1117C140.784 26.1117 137.774 22.9267 137.774 18.3417V1.40172C137.774 0.736718 138.124 0.491717 138.684 0.491717H141.064C141.659 0.491717 142.009 0.736718 142.009 1.40172V18.4117C142.009 20.7217 143.724 22.1217 146.104 22.1217C148.449 22.1217 150.199 20.7217 150.199 18.4117ZM166.738 0.491717H169.363C170.028 0.491717 170.273 0.771717 170.413 1.22672L177.308 24.3967C177.483 24.9917 177.308 25.4117 176.678 25.5517L174.403 26.2517C173.808 26.4267 173.388 26.2167 173.248 25.6567L172.303 22.0517C172.198 21.6667 171.953 21.3517 171.288 21.3517H164.918C164.323 21.3517 164.008 21.6317 163.903 22.0517L162.958 25.6567C162.818 26.2167 162.398 26.4267 161.838 26.2517L159.528 25.5517C158.898 25.3767 158.758 24.9917 158.898 24.3967L165.793 1.22672C165.933 0.736718 166.248 0.491717 166.738 0.491717ZM170.798 16.2067L168.698 8.29672C168.558 7.63172 167.718 7.59672 167.543 8.29672L165.443 16.2067C165.268 16.8367 165.443 17.3967 166.178 17.3967H170.133C170.938 17.3967 170.938 16.7317 170.798 16.2067ZM183.071 0.491717H189.546C194.446 0.491717 197.701 3.25672 197.701 8.29672C197.701 11.2017 196.406 13.6517 194.236 14.8417C193.956 14.9817 193.816 15.2967 193.991 15.6467L197.911 23.6967C198.191 24.2917 198.016 24.6767 197.491 24.9217L195.321 25.9717C194.796 26.2517 194.411 26.1817 194.096 25.5517L190.141 16.7667C189.896 16.2767 189.651 16.1367 189.056 16.1367H187.446C186.711 16.1367 186.396 16.4517 186.396 17.1867V24.8517C186.396 25.4817 186.081 25.7617 185.486 25.7617H183.071C182.511 25.7617 182.161 25.5167 182.161 24.8517V1.40172C182.161 0.736718 182.476 0.491717 183.071 0.491717ZM189.511 4.48172H187.446C186.711 4.48172 186.396 4.76172 186.396 5.53172V11.0967C186.396 11.8667 186.746 12.1467 187.446 12.1467H189.406C191.891 12.1467 193.466 10.5367 193.466 8.33172C193.466 5.81172 191.996 4.48172 189.511 4.48172ZM210.593 5.53172V24.8517C210.593 25.5167 210.278 25.7617 209.683 25.7617H207.303C206.708 25.7617 206.393 25.5167 206.393 24.8517V5.53172C206.393 4.76172 206.008 4.48172 205.343 4.48172H200.723C200.163 4.48172 199.813 4.20172 199.813 3.53672V1.40172C199.813 0.736718 200.163 0.491717 200.723 0.491717H216.228C216.823 0.491717 217.173 0.736718 217.173 1.40172V3.53672C217.173 4.20172 216.823 4.48172 216.228 4.48172H211.643C210.978 4.48172 210.593 4.76172 210.593 5.53172ZM225.716 16.1717V20.7217C225.716 21.4917 226.101 21.7717 226.766 21.7717H234.501C235.096 21.7717 235.446 22.0167 235.446 22.7167V24.8517C235.446 25.5167 235.096 25.7617 234.501 25.7617H222.391C221.831 25.7617 221.481 25.5167 221.481 24.8517V1.40172C221.481 0.736718 221.831 0.491717 222.391 0.491717H234.501C235.096 0.491717 235.446 0.736718 235.446 1.40172V3.53672C235.446 4.20172 235.096 4.48172 234.501 4.48172H226.766C226.101 4.48172 225.716 4.76172 225.716 5.53172V10.0817C225.716 10.8517 226.101 11.1317 226.766 11.1317H232.226C232.821 11.1317 233.171 11.3767 233.171 12.0767V14.2117C233.171 14.8767 232.821 15.1217 232.226 15.1217H226.766C226.101 15.1217 225.716 15.4017 225.716 16.1717ZM249.127 5.53172V24.8517C249.127 25.5167 248.812 25.7617 248.217 25.7617H245.837C245.242 25.7617 244.927 25.5167 244.927 24.8517V5.53172C244.927 4.76172 244.542 4.48172 243.877 4.48172H239.257C238.697 4.48172 238.347 4.20172 238.347 3.53672V1.40172C238.347 0.736718 238.697 0.491717 239.257 0.491717H254.762C255.357 0.491717 255.707 0.736718 255.707 1.40172V3.53672C255.707 4.20172 255.357 4.48172 254.762 4.48172H250.177C249.512 4.48172 249.127 4.76172 249.127 5.53172Z" fill="#B29160"/>
</svg>
