<svg width="138" height="396" viewBox="0 0 138 396" fill="none" xmlns="http://www.w3.org/2000/svg">
<path fill-rule="evenodd" clip-rule="evenodd" d="M54.0663 14.5133L47.9905 79.479C46.9648 90.6311 57.1962 99.8893 68.4009 99.8893C79.6055 99.8893 89.8633 90.8415 88.8112 79.479L82.7354 14.5133C82.7354 10.7115 81.2252 7.06545 78.5369 4.3772C75.8487 1.68895 72.2026 0.178711 68.4009 0.178711C64.5991 0.178711 60.9531 1.68895 58.2648 4.3772C55.5766 7.06545 54.0663 10.7115 54.0663 14.5133Z" fill="#80663F"/>
<path fill-rule="evenodd" clip-rule="evenodd" d="M44.7028 22.7444L53.2247 23.5072L51.6729 40.5508L43.151 39.7618C40.8976 39.5482 38.82 38.4523 37.3714 36.713C35.9228 34.9737 35.2207 32.7321 35.4182 30.4772C35.6251 28.221 36.7192 26.1392 38.4601 24.6892C40.2011 23.2393 42.4464 22.5398 44.7028 22.7444Z" fill="#E3D0AA"/>
<path fill-rule="evenodd" clip-rule="evenodd" d="M42.8615 42.8941L51.3833 43.6831L49.8315 60.7268L41.3097 59.9377C40.1901 59.8354 39.1016 59.5132 38.1067 58.9896C37.1118 58.4661 36.23 57.7514 35.5117 56.8865C34.7934 56.0216 34.2528 55.0235 33.9208 53.9494C33.5888 52.8753 33.4719 51.7462 33.5769 50.6268C33.7905 48.3734 34.8864 46.2958 36.6257 44.8472C38.365 43.3986 40.6066 42.6965 42.8615 42.8941Z" fill="#E3D0AA"/>
<path fill-rule="evenodd" clip-rule="evenodd" d="M68.6371 67.1177C71.6658 67.1125 74.628 68.0059 77.1488 69.6847C79.6696 71.3636 81.6357 73.7525 82.7983 76.5492C83.961 79.3458 84.2679 82.4245 83.6802 85.3957C83.0926 88.3668 81.6367 91.0968 79.497 93.2403C77.3572 95.3838 74.6296 96.8443 71.6595 97.4371C68.6894 98.0299 65.6102 97.7283 62.8115 96.5704C60.0128 95.4126 57.6205 93.4506 55.9373 90.9327C54.2541 88.4148 53.3557 85.4541 53.3557 82.4254C53.3557 78.3701 54.9649 74.4805 57.8299 71.6105C60.695 68.7405 64.5818 67.1247 68.6371 67.1177Z" fill="#8E7448"/>
<path fill-rule="evenodd" clip-rule="evenodd" d="M68.6379 73.061C70.495 73.061 72.3104 73.6117 73.8546 74.6435C75.3987 75.6753 76.6022 77.1417 77.3129 78.8575C78.0236 80.5733 78.2095 82.4612 77.8472 84.2827C77.4849 86.1041 76.5907 87.7772 75.2775 89.0904C73.9643 90.4036 72.2912 91.2979 70.4697 91.6602C68.6483 92.0225 66.7603 91.8365 65.0445 91.1259C63.3288 90.4152 61.8623 89.2116 60.8305 87.6675C59.7988 86.1234 59.248 84.308 59.248 82.4508C59.248 79.9605 60.2374 77.5722 61.9983 75.8112C63.7592 74.0503 66.1475 73.061 68.6379 73.061Z" fill="#35332E"/>
<path fill-rule="evenodd" clip-rule="evenodd" d="M45.5974 183.083C45.642 186.147 44.9134 189.172 43.4791 191.88C42.0448 194.588 39.9509 196.89 37.3911 198.575C26.3902 204.483 17.2408 213.323 10.9577 224.114C16.1561 227.314 20.4504 231.789 23.4333 237.115C26.4162 242.441 27.9886 248.441 28.0014 254.545C27.9746 262.326 25.4246 269.888 20.7342 276.096C16.0438 282.304 9.46612 286.823 1.98877 288.974L1.98877 321.799C2.03736 339.461 9.0749 356.385 21.5635 368.873C34.0521 381.362 50.9764 388.4 68.6379 388.448C86.2994 388.4 103.224 381.362 115.712 368.873C128.201 356.385 135.238 339.461 135.287 321.799V288.974C127.812 286.822 121.238 282.302 116.552 276.093C111.866 269.885 109.321 262.323 109.301 254.545C109.308 248.443 110.876 242.444 113.854 237.117C116.832 231.791 121.123 227.315 126.318 224.114C120.035 213.323 110.886 204.483 99.8846 198.575C97.3367 196.878 95.2521 194.573 93.8193 191.868C92.3864 189.163 91.6506 186.144 91.6784 183.083V149.863C91.6784 141.368 86.1023 135.213 80.1318 129.926C70.2949 121.194 71.5311 101.626 80.5001 92.0254H56.8283C65.7972 101.626 67.0597 121.194 57.1965 129.926C51.2523 135.187 45.65 141.368 45.65 149.863L45.65 183.083H45.5974Z" fill="#8E7448"/>
<path fill-rule="evenodd" clip-rule="evenodd" d="M82.2358 147.941H78.6851L78.6851 331.845H82.2358L82.2358 147.941Z" fill="#E3D0AA"/>
<path fill-rule="evenodd" clip-rule="evenodd" d="M80.4735 144.262C79.7453 144.262 79.0333 144.478 78.4278 144.883C77.8222 145.287 77.3503 145.862 77.0716 146.535C76.7929 147.208 76.7199 147.949 76.862 148.663C77.0041 149.377 77.3548 150.033 77.8698 150.548C78.3847 151.063 79.0409 151.414 79.7552 151.556C80.4694 151.698 81.2099 151.625 81.8827 151.346C82.5556 151.068 83.1306 150.596 83.5353 149.99C83.9399 149.385 84.1558 148.673 84.1558 147.944C84.1558 146.968 83.7679 146.031 83.0773 145.341C82.3868 144.65 81.4501 144.262 80.4735 144.262Z" fill="#E3D0AA"/>
<path fill-rule="evenodd" clip-rule="evenodd" d="M70.3997 147.941H66.8489L66.8489 331.845H70.3997L70.3997 147.941Z" fill="#E3D0AA"/>
<path fill-rule="evenodd" clip-rule="evenodd" d="M68.6378 144.262C67.9095 144.262 67.1976 144.478 66.5921 144.883C65.9865 145.287 65.5146 145.862 65.2359 146.535C64.9572 147.208 64.8842 147.949 65.0263 148.663C65.1684 149.377 65.5191 150.033 66.0341 150.548C66.5491 151.063 67.2051 151.414 67.9194 151.556C68.6337 151.698 69.3741 151.625 70.047 151.346C70.7198 151.068 71.2949 150.596 71.6995 149.99C72.1041 149.385 72.3201 148.673 72.3201 147.944C72.3201 146.968 71.9322 146.031 71.2416 145.341C70.551 144.65 69.6144 144.262 68.6378 144.262Z" fill="#E3D0AA"/>
<path fill-rule="evenodd" clip-rule="evenodd" d="M58.5902 147.941H55.0132L55.0132 331.845H58.5902L58.5902 147.941Z" fill="#E3D0AA"/>
<path fill-rule="evenodd" clip-rule="evenodd" d="M56.8016 144.262C56.0734 144.262 55.3614 144.478 54.7559 144.883C54.1503 145.287 53.6784 145.862 53.3997 146.535C53.121 147.208 53.0481 147.949 53.1901 148.663C53.3322 149.377 53.6829 150.033 54.1979 150.548C54.7129 151.063 55.369 151.414 56.0832 151.556C56.7975 151.698 57.5379 151.625 58.2108 151.346C58.8836 151.068 59.4587 150.596 59.8633 149.99C60.268 149.385 60.4839 148.673 60.4839 147.944C60.4839 146.968 60.0959 146.031 59.4054 145.341C58.7148 144.65 57.7782 144.262 56.8016 144.262Z" fill="#E3D0AA"/>
<path fill-rule="evenodd" clip-rule="evenodd" d="M44.6501 276.191C46.6003 276.532 48.3365 277.63 49.4798 279.246C50.623 280.863 51.0804 282.865 50.7522 284.818C50.5867 285.785 50.2322 286.71 49.709 287.54C49.1858 288.371 48.5041 289.09 47.703 289.656C46.9018 290.223 45.9968 290.626 45.0398 290.843C44.0827 291.06 43.0923 291.086 42.1251 290.92L38.7322 290.341L33.4718 320.746L32.0515 329.11V329.584C31.6402 331.924 30.3196 334.007 28.3779 335.377C26.4363 336.747 24.0314 337.293 21.6885 336.896C20.5291 336.698 19.42 336.274 18.4247 335.648C17.4294 335.021 16.5675 334.204 15.8883 333.244C15.2091 332.284 14.726 331.199 14.4666 330.052C14.2072 328.905 14.1766 327.718 14.3766 326.559C14.7755 324.216 16.0882 322.127 18.0264 320.751C19.9645 319.375 22.3696 318.825 24.7133 319.221L29.5791 320.062L35.3919 285.87L36.0231 282.188C36.3701 280.235 37.4738 278.499 39.0943 277.356C40.7148 276.214 42.721 275.757 44.6764 276.086L44.6501 276.191ZM92.6512 276.191C90.6961 276.525 88.9534 277.621 87.8047 279.238C86.6561 280.855 86.1951 282.862 86.5228 284.818C86.8633 286.773 87.9656 288.514 89.5879 289.658C91.2101 290.802 93.2198 291.256 95.1761 290.92L98.5428 290.341L103.803 320.746L105.223 329.11V329.584C105.635 331.924 106.955 334.007 108.897 335.377C110.839 336.747 113.244 337.293 115.586 336.896C117.926 336.49 120.011 335.176 121.386 333.24C122.76 331.303 123.314 328.902 122.925 326.559C122.52 324.214 121.201 322.125 119.259 320.749C117.317 319.374 114.909 318.824 112.562 319.221L107.696 320.062L101.883 285.87L101.252 282.188C100.911 280.237 99.8127 278.501 98.1964 277.358C96.5801 276.215 94.5772 275.757 92.6248 276.086L92.6512 276.191Z" fill="#35332E"/>
<path fill-rule="evenodd" clip-rule="evenodd" d="M7.19627 287.58L1.93589 288.974C1.32705 289.14 0.808587 289.54 0.493325 290.087C0.178062 290.634 0.0915233 291.283 0.252563 291.893C0.41894 292.502 0.819085 293.02 1.36587 293.336C1.91265 293.651 2.56181 293.737 3.17208 293.576L8.43247 292.182L7.19627 287.58Z" fill="#8E7448"/>
<path fill-rule="evenodd" clip-rule="evenodd" d="M130.105 287.58L135.365 288.974C135.974 289.14 136.493 289.54 136.808 290.087C137.123 290.634 137.21 291.283 137.049 291.893C136.882 292.502 136.482 293.02 135.936 293.336C135.389 293.651 134.74 293.737 134.129 293.576L128.869 292.182L130.105 287.58Z" fill="#8E7448"/>
<path fill-rule="evenodd" clip-rule="evenodd" d="M120.347 225.875L125.607 224.481C125.911 224.402 126.195 224.263 126.444 224.073C126.694 223.883 126.903 223.645 127.059 223.374C127.216 223.102 127.317 222.802 127.357 222.491C127.396 222.18 127.374 221.864 127.29 221.562C127.124 220.953 126.724 220.435 126.177 220.119C125.63 219.804 124.981 219.718 124.371 219.879L119.111 221.273L120.347 225.875Z" fill="#8E7448"/>
<path fill-rule="evenodd" clip-rule="evenodd" d="M17.1911 226.062L11.9308 224.668C11.3219 224.501 10.8035 224.101 10.4882 223.554C10.1729 223.008 10.0864 222.358 10.2474 221.748C10.4196 221.137 10.8249 220.619 11.3759 220.304C11.9269 219.989 12.5796 219.903 13.1932 220.065L18.4536 221.459L17.2174 226.062H17.1911Z" fill="#8E7448"/>
<path fill-rule="evenodd" clip-rule="evenodd" d="M92.1246 22.7447L83.6028 23.5337L85.1546 40.5511L93.6764 39.7883C95.9321 39.5682 98.0097 38.4667 99.4577 36.7232C100.906 34.9797 101.607 32.7351 101.409 30.4774C101.196 28.224 100.1 26.1464 98.3604 24.6978C96.6211 23.2492 94.3795 22.5471 92.1246 22.7447Z" fill="#E3D0AA"/>
<path fill-rule="evenodd" clip-rule="evenodd" d="M93.9666 42.9188L85.4448 43.6815L86.9966 60.7252L95.5184 59.9361C97.7746 59.7293 99.8565 58.6352 101.306 56.8942C102.756 55.1533 103.456 52.9079 103.251 50.6515C103.044 48.3953 101.95 46.3135 100.209 44.8636C98.4684 43.4136 96.223 42.7141 93.9666 42.9188Z" fill="#E3D0AA"/>
<path fill-rule="evenodd" clip-rule="evenodd" d="M85.4185 327.768H51.8835C56.9869 349.313 59.5556 371.381 59.5374 393.522L68.6116 395.521L77.7383 393.522C77.7157 371.379 80.2934 349.31 85.4185 327.768Z" fill="#E3D0AA"/>
<path fill-rule="evenodd" clip-rule="evenodd" d="M85.4181 327.766H68.6375L68.6375 395.441L77.7642 393.442C77.7416 371.299 80.3193 349.23 85.4444 327.688L85.4181 327.766Z" fill="#E3D0AA"/>
</svg>
