<svg width="454" height="158" viewBox="0 0 454 158" fill="none" xmlns="http://www.w3.org/2000/svg">
<path fill-rule="evenodd" clip-rule="evenodd" d="M16.8658 95.2843L91.3264 102.248C104.108 103.424 114.72 91.697 114.72 78.8548C114.72 66.0126 104.349 54.2556 91.3264 55.4615L16.8658 62.4253C12.5084 62.4253 8.32952 64.1562 5.24838 67.2373C2.16724 70.3185 0.436278 74.4974 0.436278 78.8548C0.436278 83.2122 2.16724 87.3911 5.24838 90.4722C8.32953 93.5534 12.5084 95.2843 16.8658 95.2843Z" fill="#DAB784"/>
<path fill-rule="evenodd" clip-rule="evenodd" d="M26.3003 106.014L27.1746 96.2465L46.7092 98.0251L45.8048 107.792C45.56 110.375 44.3039 112.756 42.3104 114.417C40.3169 116.077 37.7477 116.882 35.1632 116.655C32.5773 116.418 30.1912 115.164 28.5294 113.169C26.8675 111.174 26.0658 108.6 26.3003 106.014Z" fill="#F1DEBA"/>
<path fill-rule="evenodd" clip-rule="evenodd" d="M49.3932 108.125L50.2976 98.3579L69.8322 100.137L68.9278 109.904C68.8106 111.187 68.4413 112.435 67.8412 113.575C67.2411 114.715 66.4219 115.726 65.4306 116.549C64.4394 117.372 63.2954 117.992 62.0643 118.373C60.8332 118.753 59.5391 118.887 58.2562 118.767C55.6734 118.522 53.2921 117.266 51.6318 115.272C49.9715 113.279 49.1668 110.71 49.3932 108.125Z" fill="#F1DEBA"/>
<path fill-rule="evenodd" clip-rule="evenodd" d="M77.1585 78.5833C77.1525 75.112 78.1764 71.7169 80.1007 68.8277C82.0249 65.9384 84.763 63.685 87.9684 62.3525C91.1737 61.0199 94.7024 60.6681 98.1078 61.3417C101.513 62.0152 104.642 63.6838 107.099 66.1363C109.556 68.5888 111.23 71.715 111.909 75.1192C112.588 78.5234 112.243 82.0527 110.916 85.2604C109.589 88.4681 107.34 91.21 104.454 93.1392C101.568 95.0684 98.1748 96.0981 94.7034 96.0981C90.0554 96.0982 85.5974 94.2538 82.3079 90.97C79.0185 87.6862 77.1665 83.2313 77.1585 78.5833Z" fill="#DDBE90"/>
<path fill-rule="evenodd" clip-rule="evenodd" d="M83.9705 78.5811C83.9705 76.4526 84.6016 74.3718 85.7842 72.602C86.9668 70.8322 88.6476 69.4528 90.6141 68.6382C92.5806 67.8237 94.7445 67.6105 96.8322 68.0258C98.9198 68.4411 100.837 69.466 102.343 70.9711C103.848 72.4762 104.873 74.3939 105.288 76.4815C105.703 78.5692 105.49 80.7331 104.675 82.6996C103.861 84.6661 102.481 86.347 100.712 87.5295C98.9419 88.7121 96.8611 89.3433 94.7326 89.3433C91.8783 89.3433 89.1409 88.2094 87.1226 86.1911C85.1043 84.1728 83.9705 81.4354 83.9705 78.5811Z" fill="#AA8D62"/>
<path fill-rule="evenodd" clip-rule="evenodd" d="M210.071 104.991C213.583 104.94 217.051 105.775 220.154 107.418C223.258 109.062 225.897 111.462 227.827 114.396C234.599 127.005 244.731 137.492 257.099 144.693C260.767 138.735 265.896 133.813 272 130.394C278.105 126.975 284.981 125.173 291.978 125.158C300.896 125.189 309.563 128.112 316.678 133.488C323.794 138.863 328.973 146.402 331.439 154.973L369.061 154.973C389.304 154.917 408.702 146.851 423.015 132.537C437.329 118.223 445.395 98.8255 445.451 78.5827C445.395 58.34 437.329 38.9423 423.015 24.6285C408.702 10.3146 389.304 2.24853 369.061 2.19285L331.439 2.19285C328.972 10.7599 323.791 18.295 316.676 23.6659C309.56 29.0367 300.893 31.9532 291.978 31.9771C284.984 31.9685 278.108 30.172 272.003 26.7583C265.899 23.3446 260.768 18.4271 257.099 12.4726C244.731 19.674 234.599 30.1606 227.827 42.7693C225.883 45.6895 223.241 48.0788 220.141 49.7211C217.04 51.3633 213.579 52.2067 210.071 52.1748L171.997 52.1748C162.26 52.1748 155.206 58.5658 149.146 65.409C139.138 76.6836 116.709 75.2667 105.706 64.9869L105.706 92.1183C116.709 81.8385 139.138 80.3915 149.146 91.6963C155.175 98.5093 162.26 104.93 171.997 104.93L210.071 104.93L210.071 104.991Z" fill="#DDBE90"/>
<path fill-rule="evenodd" clip-rule="evenodd" d="M169.795 62.9957L169.795 67.0654L380.576 67.0654L380.576 62.9957L169.795 62.9957Z" fill="#F1DEBA"/>
<path fill-rule="evenodd" clip-rule="evenodd" d="M165.577 65.0164C165.577 65.8511 165.824 66.6671 166.288 67.3611C166.752 68.0552 167.411 68.5961 168.182 68.9155C168.953 69.235 169.802 69.3186 170.621 69.1557C171.439 68.9929 172.191 68.5909 172.782 68.0007C173.372 67.4105 173.774 66.6584 173.937 65.8397C174.1 65.0211 174.016 64.1724 173.697 63.4012C173.377 62.6301 172.836 61.9709 172.142 61.5072C171.448 61.0434 170.632 60.7959 169.797 60.7959C168.678 60.7959 167.605 61.2405 166.813 62.032C166.022 62.8235 165.577 63.897 165.577 65.0164Z" fill="#F1DEBA"/>
<path fill-rule="evenodd" clip-rule="evenodd" d="M169.795 76.5655L169.795 80.6353L380.576 80.6352L380.576 76.5655L169.795 76.5655Z" fill="#F1DEBA"/>
<path fill-rule="evenodd" clip-rule="evenodd" d="M165.577 78.5838C165.577 79.4185 165.824 80.2345 166.288 80.9285C166.752 81.6226 167.411 82.1635 168.182 82.4829C168.953 82.8024 169.802 82.8859 170.621 82.7231C171.439 82.5603 172.191 82.1583 172.782 81.5681C173.372 80.9778 173.774 80.2258 173.937 79.4072C174.1 78.5885 174.016 77.7398 173.697 76.9687C173.377 76.1975 172.836 75.5383 172.142 75.0746C171.448 74.6108 170.632 74.3634 169.797 74.3634C168.678 74.3634 167.605 74.808 166.813 75.5994C166.022 76.3909 165.577 77.4644 165.577 78.5838Z" fill="#F1DEBA"/>
<path fill-rule="evenodd" clip-rule="evenodd" d="M169.795 90.0974L169.795 94.1973L380.576 94.1973L380.576 90.0974L169.795 90.0974Z" fill="#F1DEBA"/>
<path fill-rule="evenodd" clip-rule="evenodd" d="M165.577 92.1507C165.577 92.9854 165.824 93.8014 166.288 94.4954C166.752 95.1895 167.411 95.7304 168.182 96.0498C168.953 96.3693 169.802 96.4528 170.621 96.29C171.439 96.1271 172.191 95.7252 172.782 95.135C173.372 94.5447 173.774 93.7927 173.937 92.9741C174.1 92.1554 174.016 91.3068 173.697 90.5356C173.377 89.7644 172.836 89.1052 172.142 88.6415C171.448 88.1777 170.632 87.9303 169.797 87.9303C168.678 87.9303 167.605 88.3749 166.813 89.1664C166.022 89.9579 165.577 91.0313 165.577 92.1507Z" fill="#F1DEBA"/>
<path fill-rule="evenodd" clip-rule="evenodd" d="M316.788 106.077C317.179 103.842 318.438 101.852 320.29 100.541C322.143 99.2312 324.438 98.7069 326.676 99.0831C327.785 99.2728 328.845 99.6791 329.797 100.279C330.748 100.878 331.572 101.66 332.222 102.578C332.871 103.496 333.333 104.533 333.582 105.63C333.83 106.727 333.86 107.862 333.67 108.971L333.007 112.86L367.856 118.889L377.442 120.517L377.985 120.517C380.667 120.988 383.054 122.502 384.624 124.727C386.195 126.953 386.82 129.709 386.365 132.394C386.139 133.723 385.653 134.995 384.935 136.135C384.217 137.276 383.28 138.264 382.18 139.042C381.079 139.821 379.836 140.375 378.521 140.672C377.207 140.969 375.846 141.004 374.518 140.775C371.832 140.318 369.438 138.813 367.861 136.592C366.284 134.37 365.653 131.614 366.107 128.928L367.072 123.351L327.882 116.688L323.662 115.965C321.424 115.567 319.434 114.302 318.124 112.445C316.814 110.587 316.291 108.288 316.668 106.047L316.788 106.077ZM316.788 51.0606C317.172 53.3013 318.428 55.2988 320.281 56.6153C322.134 57.9319 324.434 58.4602 326.676 58.0846C328.917 57.6943 330.913 56.4309 332.224 54.5716C333.535 52.7123 334.055 50.4089 333.67 48.1666L333.007 44.3079L367.856 38.2787L377.442 36.6508L377.985 36.6508C380.667 36.1794 383.054 34.6657 384.624 32.4403C386.195 30.2149 386.82 27.4586 386.365 24.7733C385.901 22.0913 384.394 19.702 382.175 18.1264C379.955 16.5508 377.203 15.9167 374.518 16.3625C371.83 16.8269 369.435 18.3376 367.859 20.5639C366.282 22.7901 365.652 25.5503 366.107 28.24L367.072 33.817L327.882 40.4793L323.662 41.2029C321.426 41.5934 319.436 42.8523 318.126 44.7049C316.816 46.5574 316.291 48.853 316.668 51.0907L316.788 51.0606Z" fill="#AA8D62"/>
<path fill-rule="evenodd" clip-rule="evenodd" d="M329.84 149.004L331.438 155.034C331.629 155.731 332.087 156.326 332.714 156.687C333.341 157.048 334.085 157.147 334.784 156.963C335.482 156.772 336.076 156.314 336.437 155.687C336.799 155.06 336.898 154.316 336.713 153.617L335.116 147.588L329.84 149.004Z" fill="#DDBE90"/>
<path fill-rule="evenodd" clip-rule="evenodd" d="M329.84 8.13196L331.438 2.10277C331.629 1.40495 332.087 0.810713 332.714 0.449375C333.341 0.0880365 334.085 -0.0111962 334.784 0.17338C335.482 0.364073 336.076 0.822699 336.437 1.4494C336.799 2.07609 336.898 2.82017 336.713 3.51963L335.116 9.54883L329.84 8.13196Z" fill="#DDBE90"/>
<path fill-rule="evenodd" clip-rule="evenodd" d="M259.119 19.317L257.522 13.2878C257.431 12.9402 257.272 12.614 257.054 12.3283C256.836 12.0426 256.563 11.8031 256.252 11.6236C255.941 11.4441 255.597 11.3282 255.24 11.2827C254.884 11.2372 254.522 11.263 254.175 11.3585C253.478 11.5492 252.883 12.0078 252.522 12.6345C252.161 13.2612 252.062 14.0052 252.246 14.7047L253.844 20.7339L259.119 19.317Z" fill="#DDBE90"/>
<path fill-rule="evenodd" clip-rule="evenodd" d="M259.329 137.546L257.731 143.575C257.541 144.273 257.082 144.867 256.455 145.228C255.829 145.59 255.085 145.689 254.385 145.504C253.685 145.307 253.091 144.843 252.73 144.211C252.369 143.579 252.27 142.831 252.456 142.128L254.054 136.099L259.329 137.516L259.329 137.546Z" fill="#DDBE90"/>
<path fill-rule="evenodd" clip-rule="evenodd" d="M26.3012 51.6629L27.2056 61.4302L46.71 59.6516L45.8358 49.8843C45.5836 47.299 44.3211 44.9177 42.3228 43.258C40.3244 41.5984 37.7518 40.7946 35.1641 41.0214C32.5813 41.2661 30.2001 42.5222 28.5398 44.5157C26.8795 46.5093 26.0748 49.0784 26.3012 51.6629Z" fill="#F1DEBA"/>
<path fill-rule="evenodd" clip-rule="evenodd" d="M49.4222 49.5516L50.2964 59.3188L69.831 57.5402L68.9266 47.773C68.6895 45.187 67.4355 42.8009 65.4402 41.1391C63.4448 39.4772 60.8713 38.6755 58.2851 38.9101C55.6991 39.1471 53.3131 40.4011 51.6512 42.3965C49.9893 44.3919 49.1876 46.9654 49.4222 49.5516Z" fill="#F1DEBA"/>
<path fill-rule="evenodd" clip-rule="evenodd" d="M375.904 59.3524L375.904 97.7886C400.598 91.9393 425.891 88.9953 451.269 89.0161L453.56 78.6157L451.269 68.1551C425.889 68.181 400.594 65.2266 375.904 59.3524Z" fill="#F1DEBA"/>
<path fill-rule="evenodd" clip-rule="evenodd" d="M375.903 59.3508L375.903 78.584L453.468 78.584L451.177 68.1233C425.798 68.1493 400.503 65.1948 375.812 59.3207L375.903 59.3508Z" fill="#F1DEBA"/>
</svg>
