<svg width="138" height="397" viewBox="0 0 138 397" fill="none" xmlns="http://www.w3.org/2000/svg">
<path fill-rule="evenodd" clip-rule="evenodd" d="M54.4526 15.0186L48.3768 79.9844C47.351 91.1364 57.5825 100.395 68.7871 100.395C79.9917 100.395 90.2495 91.3468 89.1974 79.9844L83.1216 15.0186C83.1216 11.2169 81.6114 7.57082 78.9232 4.88257C76.2349 2.19432 72.5889 0.684082 68.7871 0.684082C64.9853 0.684082 61.3393 2.19432 58.651 4.88257C55.9628 7.57082 54.4526 11.2169 54.4526 15.0186Z" fill="#DAB784"/>
<path fill-rule="evenodd" clip-rule="evenodd" d="M45.0891 23.2498L53.6109 24.0126L52.0591 41.0562L43.5372 40.2672C41.2838 40.0536 39.2062 38.9577 37.7576 37.2184C36.309 35.4791 35.6069 33.2375 35.8045 30.9826C36.0113 28.7264 37.1054 26.6446 38.8464 25.1946C40.5873 23.7446 42.8326 23.0452 45.0891 23.2498Z" fill="#F1DEBA"/>
<path fill-rule="evenodd" clip-rule="evenodd" d="M43.2477 43.3994L51.7696 44.1885L50.2178 61.2322L41.6959 60.4431C40.5763 60.3408 39.4879 60.0186 38.493 59.495C37.4981 58.9714 36.6162 58.2567 35.8979 57.3919C35.1796 56.527 34.639 55.5289 34.307 54.4548C33.975 53.3806 33.8581 52.2516 33.9631 51.1322C34.1767 48.8788 35.2727 46.8012 37.012 45.3526C38.7513 43.904 40.9928 43.2019 43.2477 43.3994Z" fill="#F1DEBA"/>
<path fill-rule="evenodd" clip-rule="evenodd" d="M69.0236 67.6231C72.0523 67.6179 75.0145 68.5112 77.5353 70.1901C80.0561 71.869 82.0222 74.2579 83.1848 77.0545C84.3475 79.8512 84.6544 82.9299 84.0667 85.901C83.479 88.8722 82.0232 91.6022 79.8834 93.7457C77.7437 95.8891 75.0161 97.3497 72.046 97.9424C69.0759 98.5352 65.9966 98.2336 63.198 97.0758C60.3993 95.918 58.007 93.956 56.3238 91.438C54.6406 88.9201 53.7422 85.9595 53.7422 82.9308C53.7422 78.8755 55.3513 74.9859 58.2164 72.1159C61.0815 69.2459 64.9683 67.63 69.0236 67.6231Z" fill="#DDBE90"/>
<path fill-rule="evenodd" clip-rule="evenodd" d="M69.0241 73.5664C70.8812 73.5664 72.6967 74.1171 74.2408 75.1489C75.785 76.1806 76.9884 77.6471 77.6991 79.3629C78.4098 81.0786 78.5958 82.9666 78.2335 84.7881C77.8712 86.6095 76.9769 88.2826 75.6637 89.5958C74.3505 90.909 72.6774 91.8033 70.8559 92.1656C69.0345 92.5279 67.1465 92.3419 65.4308 91.6312C63.715 90.9205 62.2485 89.717 61.2167 88.1729C60.185 86.6287 59.6343 84.8133 59.6343 82.9562C59.6343 80.4659 60.6236 78.0775 62.3845 76.3166C64.1454 74.5557 66.5338 73.5664 69.0241 73.5664Z" fill="#AA8D62"/>
<path fill-rule="evenodd" clip-rule="evenodd" d="M45.9836 183.588C46.0282 186.652 45.2997 189.678 43.8653 192.385C42.431 195.093 40.3371 197.396 37.7774 199.08C26.7764 204.988 17.627 213.828 11.344 224.619C16.5423 227.819 20.8366 232.294 23.8195 237.62C26.8024 242.946 28.3748 248.946 28.3876 255.05C28.3609 262.831 25.8108 270.393 21.1204 276.601C16.43 282.809 9.85235 287.328 2.375 289.48L2.375 322.304C2.42359 339.966 9.46113 356.89 21.9497 369.379C34.4384 381.867 51.3626 388.905 69.0241 388.954C86.6856 388.905 103.61 381.867 116.098 369.379C128.587 356.89 135.625 339.966 135.673 322.304V289.48C128.199 287.327 121.624 282.807 116.938 276.599C112.252 270.39 109.708 262.829 109.687 255.05C109.694 248.948 111.262 242.949 114.24 237.623C117.219 232.297 121.509 227.82 126.704 224.619C120.421 213.828 111.272 204.988 100.271 199.08C97.723 197.383 95.6383 195.078 94.2055 192.373C92.7727 189.668 92.0368 186.649 92.0646 183.588V150.369C92.0646 141.873 86.4886 135.719 80.518 130.432C70.6811 121.7 71.9173 102.131 80.8863 92.5308H57.2145C66.1835 102.131 67.446 121.7 57.5827 130.432C51.6385 135.692 46.0362 141.873 46.0362 150.369L46.0362 183.588H45.9836Z" fill="#DDBE90"/>
<path fill-rule="evenodd" clip-rule="evenodd" d="M82.6218 148.447H79.071L79.071 332.35H82.6218L82.6218 148.447Z" fill="#F1DEBA"/>
<path fill-rule="evenodd" clip-rule="evenodd" d="M80.8595 144.768C80.1312 144.768 79.4193 144.984 78.8138 145.388C78.2082 145.793 77.7363 146.368 77.4576 147.041C77.1789 147.714 77.1059 148.454 77.248 149.168C77.3901 149.883 77.7408 150.539 78.2557 151.054C78.7707 151.569 79.4269 151.919 80.1411 152.061C80.8554 152.203 81.5959 152.131 82.2687 151.852C82.9415 151.573 83.5166 151.101 83.9212 150.496C84.3259 149.89 84.5418 149.178 84.5418 148.45C84.5418 147.473 84.1539 146.537 83.4633 145.846C82.7728 145.156 81.8361 144.768 80.8595 144.768Z" fill="#F1DEBA"/>
<path fill-rule="evenodd" clip-rule="evenodd" d="M70.7861 148.447H67.2354L67.2354 332.35H70.7861L70.7861 148.447Z" fill="#F1DEBA"/>
<path fill-rule="evenodd" clip-rule="evenodd" d="M69.0241 144.768C68.2958 144.768 67.5838 144.984 66.9783 145.388C66.3727 145.793 65.9008 146.368 65.6221 147.041C65.3434 147.714 65.2705 148.454 65.4126 149.168C65.5546 149.883 65.9053 150.539 66.4203 151.054C66.9353 151.569 67.5914 151.919 68.3057 152.061C69.02 152.203 69.7604 152.131 70.4332 151.852C71.1061 151.573 71.6811 151.101 72.0858 150.496C72.4904 149.89 72.7063 149.178 72.7063 148.45C72.7063 147.473 72.3184 146.537 71.6278 145.846C70.9373 145.156 70.0007 144.768 69.0241 144.768Z" fill="#F1DEBA"/>
<path fill-rule="evenodd" clip-rule="evenodd" d="M58.9765 148.447H55.3994L55.3994 332.35H58.9765L58.9765 148.447Z" fill="#F1DEBA"/>
<path fill-rule="evenodd" clip-rule="evenodd" d="M57.1879 144.768C56.4596 144.768 55.7476 144.984 55.1421 145.388C54.5366 145.793 54.0646 146.368 53.7859 147.041C53.5072 147.714 53.4343 148.454 53.5764 149.168C53.7185 149.883 54.0692 150.539 54.5841 151.054C55.0991 151.569 55.7552 151.919 56.4695 152.061C57.1838 152.203 57.9242 152.131 58.597 151.852C59.2698 151.573 59.845 151.101 60.2496 150.496C60.6542 149.89 60.8701 149.178 60.8701 148.45C60.8701 147.473 60.4822 146.537 59.7916 145.846C59.1011 145.156 58.1645 144.768 57.1879 144.768Z" fill="#F1DEBA"/>
<path fill-rule="evenodd" clip-rule="evenodd" d="M45.0366 276.696C46.9868 277.036 48.723 278.135 49.8663 279.751C51.0095 281.367 51.4669 283.37 51.1386 285.323C50.9731 286.29 50.6187 287.215 50.0955 288.045C49.5723 288.876 48.8906 289.594 48.0895 290.161C47.2883 290.728 46.3833 291.131 45.4262 291.348C44.4692 291.565 43.4788 291.591 42.5116 291.425L39.1187 290.846L33.8583 321.251L32.438 329.615V330.089C32.0267 332.429 30.7061 334.512 28.7644 335.882C26.8228 337.252 24.4179 337.798 22.075 337.401C20.9156 337.203 19.8065 336.779 18.8112 336.153C17.8159 335.526 16.954 334.709 16.2748 333.749C15.5956 332.789 15.1124 331.704 14.853 330.557C14.5936 329.41 14.5631 328.223 14.7631 327.064C15.162 324.721 16.4747 322.632 18.4129 321.256C20.351 319.88 22.7561 319.329 25.0997 319.726L29.9656 320.567L35.7783 286.375L36.4096 282.692C36.7565 280.74 37.8603 279.004 39.4808 277.861C41.1013 276.718 43.1075 276.262 45.0629 276.59L45.0366 276.696ZM93.0376 276.696C91.0826 277.03 89.3399 278.126 88.1912 279.743C87.0425 281.36 86.5816 283.366 86.9093 285.323C87.2498 287.278 88.3521 289.019 89.9743 290.163C91.5966 291.307 93.6062 291.761 95.5626 291.425L98.9293 290.846L104.19 321.251L105.61 329.615V330.089C106.021 332.429 107.342 334.512 109.284 335.882C111.225 337.252 113.63 337.798 115.973 337.401C118.313 336.995 120.398 335.681 121.772 333.744C123.147 331.808 123.7 329.407 123.311 327.064C122.906 324.719 121.588 322.629 119.646 321.254C117.703 319.879 115.295 319.329 112.948 319.726L108.082 320.567L102.27 286.375L101.638 282.692C101.298 280.742 100.199 279.006 98.5829 277.863C96.9666 276.72 94.9637 276.262 93.0113 276.59L93.0376 276.696Z" fill="#AA8D62"/>
<path fill-rule="evenodd" clip-rule="evenodd" d="M7.5825 288.085L2.32212 289.479C1.71328 289.645 1.19482 290.045 0.879555 290.592C0.564293 291.139 0.477754 291.788 0.638794 292.398C0.805171 293.007 1.20532 293.526 1.7521 293.841C2.29888 294.156 2.94804 294.243 3.55831 294.082L8.8187 292.688L7.5825 288.085Z" fill="#DDBE90"/>
<path fill-rule="evenodd" clip-rule="evenodd" d="M130.492 288.085L135.752 289.479C136.361 289.645 136.879 290.045 137.195 290.592C137.51 291.139 137.596 291.788 137.435 292.398C137.269 293.007 136.869 293.526 136.322 293.841C135.775 294.156 135.126 294.243 134.516 294.082L129.255 292.688L130.492 288.085Z" fill="#DDBE90"/>
<path fill-rule="evenodd" clip-rule="evenodd" d="M120.733 226.381L125.993 224.987C126.297 224.907 126.581 224.769 126.831 224.579C127.08 224.388 127.289 224.151 127.445 223.879C127.602 223.607 127.703 223.307 127.743 222.996C127.783 222.685 127.76 222.369 127.677 222.067C127.51 221.458 127.11 220.94 126.563 220.625C126.017 220.309 125.367 220.223 124.757 220.384L119.497 221.778L120.733 226.381Z" fill="#DDBE90"/>
<path fill-rule="evenodd" clip-rule="evenodd" d="M17.5774 226.567L12.317 225.173C11.7082 225.007 11.1897 224.607 10.8744 224.06C10.5592 223.513 10.4726 222.864 10.6337 222.253C10.8059 221.643 11.2111 221.124 11.7621 220.809C12.3132 220.494 12.9658 220.408 13.5795 220.57L18.8399 221.964L17.6037 226.567H17.5774Z" fill="#DDBE90"/>
<path fill-rule="evenodd" clip-rule="evenodd" d="M92.5108 23.25L83.989 24.0391L85.5408 41.0564L94.0626 40.2937C96.3183 40.0736 98.3959 38.9721 99.8439 37.2286C101.292 35.4851 101.993 33.2405 101.795 30.9828C101.582 28.7293 100.486 26.6518 98.7466 25.2032C97.0073 23.7545 94.7657 23.0525 92.5108 23.25Z" fill="#F1DEBA"/>
<path fill-rule="evenodd" clip-rule="evenodd" d="M94.3529 43.4241L85.8311 44.1869L87.3829 61.2305L95.9047 60.4415C98.1609 60.2346 100.243 59.1405 101.693 57.3996C103.143 55.6587 103.842 53.4133 103.637 51.1569C103.431 48.9007 102.336 46.8189 100.596 45.3689C98.8546 43.919 96.6093 43.2195 94.3529 43.4241Z" fill="#F1DEBA"/>
<path fill-rule="evenodd" clip-rule="evenodd" d="M85.8045 328.273H52.2695C57.3729 349.818 59.9416 371.886 59.9234 394.028L68.9976 396.027L78.1243 394.028C78.1017 371.884 80.6794 349.815 85.8045 328.273Z" fill="#F1DEBA"/>
<path fill-rule="evenodd" clip-rule="evenodd" d="M85.8043 328.272H69.0237L69.0237 395.947L78.1505 393.948C78.1278 371.804 80.7056 349.735 85.8307 328.193L85.8043 328.272Z" fill="#F1DEBA"/>
</svg>
