<svg width="454" height="158" viewBox="0 0 454 158" fill="none" xmlns="http://www.w3.org/2000/svg">
<path fill-rule="evenodd" clip-rule="evenodd" d="M16.4796 95.6764L90.9402 102.64C103.722 103.816 114.333 92.0891 114.333 79.2469C114.333 66.4047 103.963 54.6477 90.9402 55.8536L16.4796 62.8174C12.1222 62.8174 7.94329 64.5483 4.86215 67.6294C1.78101 70.7106 0.0500476 74.8895 0.0500478 79.2469C0.050048 83.6043 1.78101 87.7832 4.86215 90.8643C7.94329 93.9455 12.1222 95.6764 16.4796 95.6764Z" fill="#735235"/>
<path fill-rule="evenodd" clip-rule="evenodd" d="M25.9143 106.406L26.7886 96.6386L46.3232 98.4172L45.4188 108.185C45.174 110.767 43.9179 113.149 41.9244 114.809C39.9309 116.469 37.3617 117.274 34.7773 117.047C32.1913 116.81 29.8052 115.556 28.1434 113.561C26.4815 111.566 25.6798 108.992 25.9143 106.406Z" fill="#E3D0AA"/>
<path fill-rule="evenodd" clip-rule="evenodd" d="M49.007 108.517L49.9114 98.75L69.446 100.529L68.5416 110.296C68.4243 111.579 68.0551 112.827 67.455 113.967C66.8549 115.107 66.0357 116.118 65.0444 116.941C64.0531 117.765 62.9092 118.384 61.6781 118.765C60.447 119.145 59.1529 119.279 57.8699 119.159C55.2871 118.914 52.9059 117.658 51.2456 115.664C49.5853 113.671 48.7806 111.102 49.007 108.517Z" fill="#E3D0AA"/>
<path fill-rule="evenodd" clip-rule="evenodd" d="M76.7722 78.9754C76.7663 75.5041 77.7902 72.109 79.7144 69.2197C81.6387 66.3305 84.3767 64.0771 87.5821 62.7445C90.7875 61.412 94.3162 61.0602 97.7216 61.7338C101.127 62.4073 104.256 64.0759 106.713 66.5284C109.169 68.9809 110.843 72.1071 111.523 75.5113C112.202 78.9155 111.857 82.4448 110.53 85.6525C109.202 88.8602 106.954 91.6021 104.068 93.5313C101.182 95.4605 97.7886 96.4902 94.3172 96.4902C89.6692 96.4902 85.2112 94.6459 81.9217 91.3621C78.6323 88.0783 76.7802 83.6234 76.7722 78.9754Z" fill="#865D37"/>
<path fill-rule="evenodd" clip-rule="evenodd" d="M83.5842 78.9732C83.5842 76.8447 84.2154 74.7639 85.398 72.9941C86.5805 71.2242 88.2613 69.8449 90.2279 69.0303C92.1944 68.2158 94.3583 68.0026 96.4459 68.4179C98.5336 68.8331 100.451 69.8581 101.956 71.3632C103.461 72.8683 104.486 74.786 104.902 76.8736C105.317 78.9613 105.104 81.1252 104.289 83.0917C103.475 85.0582 102.095 86.739 100.325 87.9216C98.5556 89.1042 96.4749 89.7354 94.3463 89.7354C91.4921 89.7354 88.7547 88.6015 86.7364 86.5832C84.7181 84.5649 83.5842 81.8275 83.5842 78.9732Z" fill="#35332E"/>
<path fill-rule="evenodd" clip-rule="evenodd" d="M209.685 105.383C213.197 105.332 216.664 106.167 219.768 107.811C222.871 109.455 225.51 111.854 227.441 114.788C234.213 127.397 244.344 137.884 256.713 145.085C260.38 139.127 265.51 134.205 271.614 130.786C277.718 127.367 284.595 125.565 291.592 125.55C300.509 125.581 309.177 128.504 316.292 133.88C323.407 139.256 328.587 146.795 331.053 155.365L368.675 155.365C388.918 155.309 408.315 147.243 422.629 132.929C436.943 118.615 445.009 99.2176 445.065 78.9748C445.009 58.7321 436.943 39.3344 422.629 25.0205C408.315 10.7067 388.918 2.64062 368.675 2.58494L331.053 2.58494C328.586 11.152 323.405 18.6871 316.289 24.058C309.173 29.4288 300.507 32.3453 291.592 32.3692C284.597 32.3606 277.722 30.5641 271.617 27.1504C265.512 23.7367 260.382 18.8192 256.713 12.8647C244.344 20.0661 234.213 30.5527 227.441 43.1614C225.496 46.0816 222.855 48.4709 219.754 50.1132C216.654 51.7554 213.193 52.5988 209.685 52.5669L171.611 52.5669C161.873 52.5669 154.819 58.9579 148.76 65.8011C138.751 77.0757 116.323 75.6588 105.32 65.379L105.32 92.5104C116.323 82.2306 138.751 80.7836 148.76 92.0884C154.789 98.9014 161.873 105.322 171.611 105.322L209.685 105.322L209.685 105.383Z" fill="#865D37"/>
<path fill-rule="evenodd" clip-rule="evenodd" d="M169.409 63.3878L169.409 67.4575L380.19 67.4575L380.19 63.3878L169.409 63.3878Z" fill="#E3D0AA"/>
<path fill-rule="evenodd" clip-rule="evenodd" d="M165.191 65.4085C165.191 66.2432 165.438 67.0592 165.902 67.7532C166.366 68.4473 167.025 68.9882 167.796 69.3076C168.567 69.627 169.416 69.7107 170.234 69.5478C171.053 69.385 171.805 68.983 172.395 68.3928C172.986 67.8025 173.388 67.0505 173.55 66.2318C173.713 65.4132 173.63 64.5645 173.31 63.7933C172.991 63.0221 172.45 62.363 171.756 61.8993C171.062 61.4355 170.246 61.188 169.411 61.188C168.292 61.188 167.218 61.6326 166.427 62.4241C165.635 63.2156 165.191 64.2891 165.191 65.4085Z" fill="#E3D0AA"/>
<path fill-rule="evenodd" clip-rule="evenodd" d="M169.409 76.9576L169.409 81.0273L380.19 81.0273L380.19 76.9576L169.409 76.9576Z" fill="#E3D0AA"/>
<path fill-rule="evenodd" clip-rule="evenodd" d="M165.191 78.9759C165.191 79.8106 165.438 80.6266 165.902 81.3206C166.366 82.0147 167.025 82.5556 167.796 82.875C168.567 83.1945 169.416 83.278 170.234 83.1152C171.053 82.9523 171.805 82.5504 172.395 81.9602C172.986 81.3699 173.388 80.6179 173.55 79.7993C173.713 78.9806 173.63 78.1319 173.31 77.3607C172.991 76.5896 172.45 75.9304 171.756 75.4667C171.062 75.0029 170.246 74.7554 169.411 74.7554C168.292 74.7554 167.218 75.2001 166.427 75.9915C165.635 76.783 165.191 77.8565 165.191 78.9759Z" fill="#E3D0AA"/>
<path fill-rule="evenodd" clip-rule="evenodd" d="M169.409 90.4895L169.409 94.5894L380.19 94.5893L380.19 90.4895L169.409 90.4895Z" fill="#E3D0AA"/>
<path fill-rule="evenodd" clip-rule="evenodd" d="M165.191 92.5428C165.191 93.3775 165.438 94.1935 165.902 94.8875C166.366 95.5816 167.025 96.1225 167.796 96.4419C168.567 96.7614 169.416 96.8449 170.234 96.6821C171.053 96.5192 171.805 96.1173 172.395 95.527C172.986 94.9368 173.388 94.1848 173.55 93.3661C173.713 92.5475 173.63 91.6989 173.31 90.9277C172.991 90.1565 172.45 89.4973 171.756 89.0336C171.062 88.5698 170.246 88.3223 169.411 88.3223C168.292 88.3223 167.218 88.767 166.427 89.5585C165.635 90.35 165.191 91.4234 165.191 92.5428Z" fill="#E3D0AA"/>
<path fill-rule="evenodd" clip-rule="evenodd" d="M316.402 106.469C316.792 104.234 318.051 102.244 319.904 100.934C321.756 99.6233 324.052 99.099 326.29 99.4752C327.398 99.6649 328.459 100.071 329.41 100.671C330.362 101.271 331.186 102.052 331.835 102.97C332.485 103.888 332.947 104.926 333.195 106.023C333.444 107.119 333.474 108.255 333.284 109.363L332.62 113.252L367.469 119.281L377.056 120.909L377.598 120.909C380.281 121.38 382.668 122.894 384.238 125.119C385.808 127.345 386.434 130.101 385.979 132.787C385.753 134.115 385.266 135.387 384.548 136.527C383.83 137.668 382.894 138.656 381.794 139.434C380.693 140.213 379.45 140.767 378.135 141.064C376.82 141.361 375.46 141.396 374.131 141.167C371.446 140.71 369.051 139.205 367.474 136.984C365.897 134.762 365.267 132.006 365.721 129.32L366.685 123.743L327.496 117.08L323.275 116.357C321.037 115.959 319.047 114.694 317.738 112.837C316.428 110.98 315.904 108.68 316.281 106.439L316.402 106.469ZM316.402 51.4526C316.785 53.6934 318.041 55.6909 319.895 57.0074C321.748 58.3239 324.048 58.8523 326.29 58.4767C328.531 58.0864 330.526 56.823 331.837 54.9637C333.148 53.1044 333.668 50.801 333.284 48.5587L332.62 44.7L367.469 38.6708L377.055 37.0429L377.598 37.0429C380.281 36.5715 382.668 35.0578 384.238 32.8324C385.808 30.607 386.434 27.8506 385.979 25.1653C385.514 22.4834 384.008 20.0941 381.788 18.5185C379.569 16.9428 376.816 16.3087 374.131 16.7546C371.443 17.2189 369.049 18.7297 367.472 20.956C365.896 23.1822 365.266 25.9424 365.721 28.6321L366.685 34.2091L327.496 40.8714L323.275 41.5949C321.04 41.9855 319.05 43.2444 317.74 45.0969C316.429 46.9495 315.905 49.2451 316.281 51.4828L316.402 51.4526Z" fill="#35332E"/>
<path fill-rule="evenodd" clip-rule="evenodd" d="M329.454 149.396L331.052 155.426C331.242 156.123 331.701 156.718 332.328 157.079C332.954 157.44 333.698 157.54 334.398 157.355C335.096 157.164 335.69 156.706 336.051 156.079C336.413 155.452 336.512 154.708 336.327 154.009L334.729 147.98L329.454 149.396Z" fill="#865D37"/>
<path fill-rule="evenodd" clip-rule="evenodd" d="M329.454 8.52405L331.052 2.49486C331.242 1.79704 331.701 1.2028 332.328 0.841465C332.954 0.480126 333.698 0.380894 334.398 0.56547C335.096 0.756162 335.69 1.21479 336.051 1.84149C336.413 2.46818 336.512 3.21226 336.327 3.91172L334.729 9.94092L329.454 8.52405Z" fill="#865D37"/>
<path fill-rule="evenodd" clip-rule="evenodd" d="M258.733 19.7091L257.136 13.6799C257.045 13.3322 256.886 13.0061 256.668 12.7204C256.45 12.4347 256.177 12.1952 255.866 12.0157C255.555 11.8362 255.211 11.7203 254.854 11.6748C254.498 11.6293 254.136 11.6551 253.789 11.7506C253.092 11.9413 252.497 12.3998 252.136 13.0265C251.775 13.6532 251.676 14.3973 251.86 15.0968L253.458 21.126L258.733 19.7091Z" fill="#865D37"/>
<path fill-rule="evenodd" clip-rule="evenodd" d="M258.943 137.938L257.345 143.967C257.155 144.665 256.696 145.259 256.069 145.621C255.443 145.982 254.698 146.081 253.999 145.897C253.299 145.699 252.704 145.235 252.343 144.603C251.983 143.972 251.884 143.224 252.07 142.52L253.667 136.491L258.943 137.908L258.943 137.938Z" fill="#865D37"/>
<path fill-rule="evenodd" clip-rule="evenodd" d="M25.915 52.055L26.8193 61.8223L46.3238 60.0437L45.4496 50.2764C45.1973 47.6911 43.9349 45.3098 41.9365 43.6501C39.9382 41.9905 37.3656 41.1867 34.7779 41.4135C32.1951 41.6582 29.8139 42.9143 28.1535 44.9078C26.4932 46.9014 25.6885 49.4705 25.915 52.055Z" fill="#E3D0AA"/>
<path fill-rule="evenodd" clip-rule="evenodd" d="M49.0359 49.9437L49.9102 59.7109L69.4447 57.9323L68.5404 48.1651C68.3033 45.5791 67.0493 43.193 65.0539 41.5312C63.0585 39.8693 60.485 39.0676 57.8989 39.3021C55.3129 39.5392 52.9268 40.7932 51.265 42.7886C49.6031 44.784 48.8014 47.3575 49.0359 49.9437Z" fill="#E3D0AA"/>
<path fill-rule="evenodd" clip-rule="evenodd" d="M375.517 59.7445L375.517 98.1807C400.212 92.3314 425.505 89.3874 450.882 89.4082L453.173 79.0078L450.882 68.5472C425.503 68.5731 400.208 65.6187 375.517 59.7445Z" fill="#E3D0AA"/>
<path fill-rule="evenodd" clip-rule="evenodd" d="M375.517 59.7429L375.517 78.9761L453.082 78.9761L450.791 68.5154C425.412 68.5413 400.117 65.5869 375.426 59.7127L375.517 59.7429Z" fill="#E3D0AA"/>
</svg>
