<svg width="40" height="33" viewBox="0 0 40 33" fill="none" xmlns="http://www.w3.org/2000/svg">
<g clip-path="url(#clip0_172_6406)">
<path d="M33.2335 2.79306C37.1884 6.08681 39.7173 11.1243 39.7173 16.7618C39.7173 22.3993 37.1884 27.4306 33.2335 30.7306C32.6059 31.2556 31.6857 31.1556 31.1738 30.5118C30.662 29.8681 30.7595 28.9243 31.3871 28.3993C34.6899 25.6493 36.7923 21.4618 36.7923 16.7618C36.7923 12.0618 34.6899 7.87431 31.3871 5.11806C30.7595 4.59306 30.6681 3.64931 31.1738 3.00556C31.6796 2.36181 32.6059 2.26806 33.2335 2.78681V2.79306ZM29.5468 7.44931C32.1793 9.64931 33.8673 13.0056 33.8673 16.7618C33.8673 20.5181 32.1793 23.8743 29.5468 26.0743C28.9192 26.5993 27.999 26.4993 27.4871 25.8556C26.9753 25.2118 27.0728 24.2681 27.7004 23.7431C29.6809 22.0931 30.9423 19.5806 30.9423 16.7618C30.9423 13.9431 29.6809 11.4306 27.7004 9.77431C27.0728 9.24931 26.9813 8.30556 27.4871 7.66181C27.9929 7.01806 28.9192 6.92431 29.5468 7.44306V7.44931ZM25.8601 12.1056C27.1703 13.2056 28.0173 14.8806 28.0173 16.7618C28.0173 18.6431 27.1703 20.3181 25.8601 21.4181C25.2324 21.9431 24.3123 21.8431 23.8004 21.1993C23.2885 20.5556 23.386 19.6118 24.0137 19.0868C24.6718 18.5368 25.0923 17.6993 25.0923 16.7618C25.0923 15.8243 24.6718 14.9868 24.0137 14.4306C23.386 13.9056 23.2946 12.9618 23.8004 12.3181C24.3062 11.6743 25.2324 11.5806 25.8601 12.0993V12.1056ZM19.0656 2.93681C19.7663 3.26181 20.2173 3.97431 20.2173 4.76181V28.7618C20.2173 29.5493 19.7663 30.2618 19.0656 30.5868C18.3648 30.9118 17.5421 30.7806 16.9693 30.2556L8.74885 22.7618H4.61729C2.46619 22.7618 0.717285 20.9681 0.717285 18.7618V14.7618C0.717285 12.5556 2.46619 10.7618 4.61729 10.7618H8.74885L16.9693 3.26806C17.5421 2.74306 18.3648 2.61806 19.0656 2.93681Z" fill="#B29160"/>
</g>
<defs>
<clipPath id="clip0_172_6406">
<rect width="39" height="32" fill="white" transform="translate(0.717285 0.761719)"/>
</clipPath>
</defs>
</svg>
